<?xml version="1.0" encoding="UTF-8" standalone="no"?>
<!-- Created with Inkscape (http://www.inkscape.org/) -->

<svg
   width="165mm"
   height="120mm"
   viewBox="0 0 165 119.99999"
   version="1.1"
   id="svg5"
   sodipodi:docname="bossmainer.svg"
   inkscape:version="1.1 (c68e22c387, 2021-05-23)"
   inkscape:export-filename="D:\bossmainer\bossmainer.jpg"
   inkscape:export-xdpi="307.88"
   inkscape:export-ydpi="307.88"
   xmlns:inkscape="http://www.inkscape.org/namespaces/inkscape"
   xmlns:sodipodi="http://sodipodi.sourceforge.net/DTD/sodipodi-0.dtd"
   xmlns="http://www.w3.org/2000/svg"
   xmlns:svg="http://www.w3.org/2000/svg">
  <sodipodi:namedview
     id="namedview7"
     pagecolor="#ffffff"
     bordercolor="#666666"
     borderopacity="1.0"
     inkscape:pageshadow="2"
     inkscape:pageopacity="1"
     inkscape:pagecheckerboard="false"
     inkscape:document-units="mm"
     showgrid="true"
     inkscape:zoom="0.77771465"
     inkscape:cx="140.79714"
     inkscape:cy="453.25108"
     inkscape:window-width="1284"
     inkscape:window-height="1081"
     inkscape:window-x="504"
     inkscape:window-y="209"
     inkscape:window-maximized="0"
     inkscape:current-layer="layer1"
     fit-margin-top="0"
     fit-margin-left="0"
     fit-margin-right="0"
     fit-margin-bottom="0"
     width="160mm">
    <inkscape:grid
       type="xygrid"
       id="grid33431"
       originx="-29.857582"
       originy="-2.6458329" />
  </sodipodi:namedview>
  <defs
     id="defs2" />
  <g
     inkscape:label="Layer 1"
     inkscape:groupmode="layer"
     id="layer1"
     transform="translate(-29.857583,-2.645833)">
    <text
       xml:space="preserve"
       style="font-style:normal;font-weight:normal;font-size:22.5778px;line-height:1.25;font-family:sans-serif;fill:#000000;fill-opacity:1;stroke:none;stroke-width:0.264583"
       x="35.093212"
       y="113.94662"
       id="text2541"><tspan
         sodipodi:role="line"
         id="tspan2539"
         style="font-style:italic;font-variant:normal;font-weight:bold;font-stretch:normal;font-size:22.5778px;font-family:Rubik;-inkscape-font-specification:'Rubik Bold Italic';stroke-width:0.264583"
         x="35.093212"
         y="113.94662">BOSS<tspan
   style="font-style:italic;font-variant:normal;font-weight:bold;font-stretch:normal;font-size:22.5778px;font-family:Rubik;-inkscape-font-specification:'Rubik Bold Italic';fill:#4d4d4d"
   id="tspan5543">MAINER</tspan></tspan></text>
    <path
       id="rect32417"
       style="fill:#ff6600;stroke-width:0.264583"
       d="m 76.932773,39.816691 c -6.78507,0 -12.247313,5.614316 -12.247313,12.587862 v 17.350361 c 0,6.973546 5.462243,12.587864 12.247313,12.587864 h 10.583334 v -5.613611 h -8.684742 c -4.161512,0 -7.511685,-3.350176 -7.511685,-7.511688 V 52.941988 c 0,-4.161512 3.350173,-7.511685 7.511685,-7.511685 h 13.901994 v -5.613612 z m 52.543047,0 v 5.613612 h 13.6002 c 4.16151,0 7.51169,3.350173 7.51169,7.511685 v 16.275491 c 0,4.161512 -3.35018,7.511688 -7.51169,7.511688 h -8.13852 v 5.613611 h 9.01599 c 6.78508,0 12.24731,-5.614318 12.24731,-12.587864 V 52.404553 c 0,-6.973546 -5.46223,-12.587862 -12.24731,-12.587862 z" />
    <path
       id="rect33456"
       style="fill:#ff6600;stroke-width:0.289835"
       d="m 98.099441,71.566691 v 5.291667 h -5.291667 v 5.291667 h 5.291667 v 5.291666 h 5.291669 v -5.291666 h 5.29166 v -5.291667 h -5.29166 v -5.291667 z" />
    <rect
       style="fill:#ff6600;stroke-width:0.264583"
       id="rect33562"
       width="15.875"
       height="5.2916665"
       x="113.97443"
       y="76.85836" />
    <path
       id="path33793"
       style="fill:#ff6600;stroke-width:0.264583"
       d="m 111.59318,24.379908 a 11.906249,11.906249 0 0 0 -11.90624,11.90625 11.906249,11.906249 0 0 0 5.29167,9.895519 v 1.572514 0.438216 1.043348 h 0.0532 a 6.5892478,5.2916663 0 0 0 1.37355,3.175 h 0.38758 a 6.5802885,7.9374999 0 0 0 1.00614,1.073319 6.5892478,5.2916663 0 0 0 3.8194,0.985986 6.5892478,5.2916663 0 0 0 3.91346,-1.037146 6.5802885,7.9374999 0 0 0 0.94464,-1.022159 h 0.35554 a 6.5892478,5.2916663 0 0 0 1.37304,-3.175 h 0.007 v -1.481564 h -0.005 v -1.572514 a 11.906249,11.906249 0 0 0 5.29227,-9.895519 11.906249,11.906249 0 0 0 -11.90625,-11.90625 z m -0.0362,2.344559 a 9.9029207,9.5155715 0 0 1 9.90327,9.515698 9.9029207,9.5155715 0 0 1 -2.836,6.660576 h -14.13401 a 9.9029207,9.5155715 0 0 1 -2.83601,-6.660576 9.9029207,9.5155715 0 0 1 9.90275,-9.515698 z" />
    <rect
       style="fill:#ff6600;stroke-width:0.264583"
       id="rect35179"
       width="10.583333"
       height="2.6458333"
       x="-18.650024"
       y="110.10016"
       transform="rotate(-90)" />
    <rect
       style="fill:#ff6600;stroke-width:0.264583"
       id="rect35179-1"
       width="10.583333"
       height="2.6458333"
       x="71.108299"
       y="102.38489"
       transform="rotate(-45.020742)" />
    <rect
       style="fill:#ff6600;stroke-width:0.264583"
       id="rect35179-1-5"
       width="10.583333"
       height="2.6458333"
       x="-85.635155"
       y="52.464592"
       transform="rotate(-134.97928)" />
  </g>
</svg>
