solid ascii
  facet normal 1.000000e+000 -0.000000e+000 0.000000e+000
    outer loop
      vertex   1.734789e+001 -4.000000e+001 1.000000e+001
      vertex   1.734789e+001 -4.000000e+001 0.000000e+000
      vertex   1.734789e+001 -3.045242e+001 1.000000e+001
    endloop
  endfacet
  facet normal 1.000000e+000 -0.000000e+000 0.000000e+000
    outer loop
      vertex   1.734789e+001 -3.045242e+001 1.000000e+001
      vertex   1.734789e+001 -4.000000e+001 0.000000e+000
      vertex   1.734789e+001 -3.045242e+001 0.000000e+000
    endloop
  endfacet
  facet normal 0.000000e+000 -1.000000e+000 0.000000e+000
    outer loop
      vertex   7.706708e+000 -4.000000e+001 1.000000e+001
      vertex   7.706708e+000 -4.000000e+001 0.000000e+000
      vertex   1.734789e+001 -4.000000e+001 1.000000e+001
    endloop
  endfacet
  facet normal 0.000000e+000 -1.000000e+000 -0.000000e+000
    outer loop
      vertex   1.734789e+001 -4.000000e+001 1.000000e+001
      vertex   7.706708e+000 -4.000000e+001 0.000000e+000
      vertex   1.734789e+001 -4.000000e+001 0.000000e+000
    endloop
  endfacet
  facet normal -1.000000e+000 -0.000000e+000 -0.000000e+000
    outer loop
      vertex   7.706708e+000 -3.045242e+001 1.000000e+001
      vertex   7.706708e+000 -3.045242e+001 0.000000e+000
      vertex   7.706708e+000 -4.000000e+001 1.000000e+001
    endloop
  endfacet
  facet normal -1.000000e+000 -0.000000e+000 -0.000000e+000
    outer loop
      vertex   7.706708e+000 -4.000000e+001 1.000000e+001
      vertex   7.706708e+000 -3.045242e+001 0.000000e+000
      vertex   7.706708e+000 -4.000000e+001 0.000000e+000
    endloop
  endfacet
  facet normal 0.000000e+000 1.000000e+000 0.000000e+000
    outer loop
      vertex   1.734789e+001 -3.045242e+001 1.000000e+001
      vertex   1.734789e+001 -3.045242e+001 0.000000e+000
      vertex   7.706708e+000 -3.045242e+001 1.000000e+001
    endloop
  endfacet
  facet normal 0.000000e+000 1.000000e+000 0.000000e+000
    outer loop
      vertex   7.706708e+000 -3.045242e+001 1.000000e+001
      vertex   1.734789e+001 -3.045242e+001 0.000000e+000
      vertex   7.706708e+000 -3.045242e+001 0.000000e+000
    endloop
  endfacet
  facet normal 0.000000e+000 0.000000e+000 1.000000e+000
    outer loop
      vertex   1.734789e+001 -3.045242e+001 1.000000e+001
      vertex   7.706708e+000 -3.045242e+001 1.000000e+001
      vertex   1.734789e+001 -4.000000e+001 1.000000e+001
    endloop
  endfacet
  facet normal 0.000000e+000 0.000000e+000 1.000000e+000
    outer loop
      vertex   1.734789e+001 -4.000000e+001 1.000000e+001
      vertex   7.706708e+000 -3.045242e+001 1.000000e+001
      vertex   7.706708e+000 -4.000000e+001 1.000000e+001
    endloop
  endfacet
  facet normal 0.000000e+000 -0.000000e+000 -1.000000e+000
    outer loop
      vertex   7.706708e+000 -3.045242e+001 0.000000e+000
      vertex   1.734789e+001 -3.045242e+001 0.000000e+000
      vertex   7.706708e+000 -4.000000e+001 0.000000e+000
    endloop
  endfacet
  facet normal 0.000000e+000 0.000000e+000 -1.000000e+000
    outer loop
      vertex   7.706708e+000 -4.000000e+001 0.000000e+000
      vertex   1.734789e+001 -3.045242e+001 0.000000e+000
      vertex   1.734789e+001 -4.000000e+001 0.000000e+000
    endloop
  endfacet
  facet normal 1.000000e+000 -0.000000e+000 0.000000e+000
    outer loop
      vertex   1.734789e+001 -1.535101e+001 1.000000e+001
      vertex   1.734789e+001 -1.535101e+001 0.000000e+000
      vertex   1.734789e+001 0.000000e+000 1.000000e+001
    endloop
  endfacet
  facet normal 1.000000e+000 -0.000000e+000 0.000000e+000
    outer loop
      vertex   1.734789e+001 0.000000e+000 1.000000e+001
      vertex   1.734789e+001 -1.535101e+001 0.000000e+000
      vertex   1.734789e+001 0.000000e+000 0.000000e+000
    endloop
  endfacet
  facet normal 9.925728e-001 -1.216524e-001 0.000000e+000
    outer loop
      vertex   1.597504e+001 -2.655226e+001 1.000000e+001
      vertex   1.597504e+001 -2.655226e+001 0.000000e+000
      vertex   1.734789e+001 -1.535101e+001 1.000000e+001
    endloop
  endfacet
  facet normal 9.925728e-001 -1.216524e-001 0.000000e+000
    outer loop
      vertex   1.734789e+001 -1.535101e+001 1.000000e+001
      vertex   1.597504e+001 -2.655226e+001 0.000000e+000
      vertex   1.734789e+001 -1.535101e+001 0.000000e+000
    endloop
  endfacet
  facet normal 0.000000e+000 -1.000000e+000 0.000000e+000
    outer loop
      vertex   9.079563e+000 -2.655226e+001 1.000000e+001
      vertex   9.079563e+000 -2.655226e+001 0.000000e+000
      vertex   1.597504e+001 -2.655226e+001 1.000000e+001
    endloop
  endfacet
  facet normal 0.000000e+000 -1.000000e+000 -0.000000e+000
    outer loop
      vertex   1.597504e+001 -2.655226e+001 1.000000e+001
      vertex   9.079563e+000 -2.655226e+001 0.000000e+000
      vertex   1.597504e+001 -2.655226e+001 0.000000e+000
    endloop
  endfacet
  facet normal -9.925728e-001 -1.216524e-001 -0.000000e+000
    outer loop
      vertex   7.706708e+000 -1.535101e+001 1.000000e+001
      vertex   7.706708e+000 -1.535101e+001 0.000000e+000
      vertex   9.079563e+000 -2.655226e+001 1.000000e+001
    endloop
  endfacet
  facet normal -9.925728e-001 -1.216524e-001 0.000000e+000
    outer loop
      vertex   9.079563e+000 -2.655226e+001 1.000000e+001
      vertex   7.706708e+000 -1.535101e+001 0.000000e+000
      vertex   9.079563e+000 -2.655226e+001 0.000000e+000
    endloop
  endfacet
  facet normal -1.000000e+000 -0.000000e+000 -0.000000e+000
    outer loop
      vertex   7.706708e+000 0.000000e+000 1.000000e+001
      vertex   7.706708e+000 0.000000e+000 0.000000e+000
      vertex   7.706708e+000 -1.535101e+001 1.000000e+001
    endloop
  endfacet
  facet normal -1.000000e+000 -0.000000e+000 -0.000000e+000
    outer loop
      vertex   7.706708e+000 -1.535101e+001 1.000000e+001
      vertex   7.706708e+000 0.000000e+000 0.000000e+000
      vertex   7.706708e+000 -1.535101e+001 0.000000e+000
    endloop
  endfacet
  facet normal 0.000000e+000 1.000000e+000 0.000000e+000
    outer loop
      vertex   1.734789e+001 0.000000e+000 1.000000e+001
      vertex   1.734789e+001 0.000000e+000 0.000000e+000
      vertex   7.706708e+000 0.000000e+000 1.000000e+001
    endloop
  endfacet
  facet normal 0.000000e+000 1.000000e+000 0.000000e+000
    outer loop
      vertex   7.706708e+000 0.000000e+000 1.000000e+001
      vertex   1.734789e+001 0.000000e+000 0.000000e+000
      vertex   7.706708e+000 0.000000e+000 0.000000e+000
    endloop
  endfacet
  facet normal 0.000000e+000 0.000000e+000 1.000000e+000
    outer loop
      vertex   1.734789e+001 0.000000e+000 1.000000e+001
      vertex   7.706708e+000 0.000000e+000 1.000000e+001
      vertex   1.734789e+001 -1.535101e+001 1.000000e+001
    endloop
  endfacet
  facet normal 0.000000e+000 0.000000e+000 1.000000e+000
    outer loop
      vertex   1.734789e+001 -1.535101e+001 1.000000e+001
      vertex   7.706708e+000 0.000000e+000 1.000000e+001
      vertex   7.706708e+000 -1.535101e+001 1.000000e+001
    endloop
  endfacet
  facet normal 0.000000e+000 0.000000e+000 1.000000e+000
    outer loop
      vertex   1.597504e+001 -2.655226e+001 1.000000e+001
      vertex   7.706708e+000 -1.535101e+001 1.000000e+001
      vertex   9.079563e+000 -2.655226e+001 1.000000e+001
    endloop
  endfacet
  facet normal 0.000000e+000 -0.000000e+000 1.000000e+000
    outer loop
      vertex   1.597504e+001 -2.655226e+001 1.000000e+001
      vertex   1.734789e+001 -1.535101e+001 1.000000e+001
      vertex   7.706708e+000 -1.535101e+001 1.000000e+001
    endloop
  endfacet
  facet normal 0.000000e+000 -0.000000e+000 -1.000000e+000
    outer loop
      vertex   7.706708e+000 0.000000e+000 0.000000e+000
      vertex   1.734789e+001 0.000000e+000 0.000000e+000
      vertex   7.706708e+000 -1.535101e+001 0.000000e+000
    endloop
  endfacet
  facet normal 0.000000e+000 0.000000e+000 -1.000000e+000
    outer loop
      vertex   7.706708e+000 -1.535101e+001 0.000000e+000
      vertex   1.734789e+001 0.000000e+000 0.000000e+000
      vertex   1.734789e+001 -1.535101e+001 0.000000e+000
    endloop
  endfacet
  facet normal 0.000000e+000 -0.000000e+000 -1.000000e+000
    outer loop
      vertex   9.079563e+000 -2.655226e+001 0.000000e+000
      vertex   1.734789e+001 -1.535101e+001 0.000000e+000
      vertex   1.597504e+001 -2.655226e+001 0.000000e+000
    endloop
  endfacet
  facet normal 0.000000e+000 0.000000e+000 -1.000000e+000
    outer loop
      vertex   9.079563e+000 -2.655226e+001 0.000000e+000
      vertex   7.706708e+000 -1.535101e+001 0.000000e+000
      vertex   1.734789e+001 -1.535101e+001 0.000000e+000
    endloop
  endfacet
endsolid