solid ascii
  facet normal -9.689177e-001 2.473832e-001 0.000000e+000
    outer loop
      vertex   2.742590e+001 -1.603744e+001 1.000000e+001
      vertex   2.742590e+001 -1.603744e+001 0.000000e+000
      vertex   2.555382e+001 -2.336974e+001 1.000000e+001
    endloop
  endfacet
  facet normal -9.689177e-001 2.473832e-001 0.000000e+000
    outer loop
      vertex   2.555382e+001 -2.336974e+001 1.000000e+001
      vertex   2.742590e+001 -1.603744e+001 0.000000e+000
      vertex   2.555382e+001 -2.336974e+001 0.000000e+000
    endloop
  endfacet
  facet normal 0.000000e+000 1.000000e+000 0.000000e+000
    outer loop
      vertex   2.555382e+001 -2.336974e+001 1.000000e+001
      vertex   2.555382e+001 -2.336974e+001 0.000000e+000
      vertex   1.847114e+001 -2.336974e+001 1.000000e+001
    endloop
  endfacet
  facet normal 0.000000e+000 1.000000e+000 0.000000e+000
    outer loop
      vertex   1.847114e+001 -2.336974e+001 1.000000e+001
      vertex   2.555382e+001 -2.336974e+001 0.000000e+000
      vertex   1.847114e+001 -2.336974e+001 0.000000e+000
    endloop
  endfacet
  facet normal 9.689177e-001 -2.473832e-001 0.000000e+000
    outer loop
      vertex   1.847114e+001 -2.336974e+001 1.000000e+001
      vertex   1.847114e+001 -2.336974e+001 0.000000e+000
      vertex   2.034321e+001 -1.603744e+001 1.000000e+001
    endloop
  endfacet
  facet normal 9.689177e-001 -2.473832e-001 0.000000e+000
    outer loop
      vertex   2.034321e+001 -1.603744e+001 1.000000e+001
      vertex   1.847114e+001 -2.336974e+001 0.000000e+000
      vertex   2.034321e+001 -1.603744e+001 0.000000e+000
    endloop
  endfacet
  facet normal 0.000000e+000 -1.000000e+000 0.000000e+000
    outer loop
      vertex   2.034321e+001 -1.603744e+001 1.000000e+001
      vertex   2.034321e+001 -1.603744e+001 0.000000e+000
      vertex   2.742590e+001 -1.603744e+001 1.000000e+001
    endloop
  endfacet
  facet normal 0.000000e+000 -1.000000e+000 -0.000000e+000
    outer loop
      vertex   2.742590e+001 -1.603744e+001 1.000000e+001
      vertex   2.034321e+001 -1.603744e+001 0.000000e+000
      vertex   2.742590e+001 -1.603744e+001 0.000000e+000
    endloop
  endfacet
  facet normal 0.000000e+000 1.000000e+000 0.000000e+000
    outer loop
      vertex   2.889236e+001 -1.032761e+001 1.000000e+001
      vertex   2.889236e+001 -1.032761e+001 0.000000e+000
      vertex   2.184087e+001 -1.032761e+001 1.000000e+001
    endloop
  endfacet
  facet normal 0.000000e+000 1.000000e+000 0.000000e+000
    outer loop
      vertex   2.184087e+001 -1.032761e+001 1.000000e+001
      vertex   2.889236e+001 -1.032761e+001 0.000000e+000
      vertex   2.184087e+001 -1.032761e+001 0.000000e+000
    endloop
  endfacet
  facet normal -9.692751e-001 2.459792e-001 0.000000e+000
    outer loop
      vertex   3.151326e+001 -6.843841e-007 1.000000e+001
      vertex   3.151326e+001 -6.843841e-007 0.000000e+000
      vertex   2.889236e+001 -1.032761e+001 1.000000e+001
    endloop
  endfacet
  facet normal -9.692751e-001 2.459792e-001 0.000000e+000
    outer loop
      vertex   2.889236e+001 -1.032761e+001 1.000000e+001
      vertex   3.151326e+001 -6.843841e-007 0.000000e+000
      vertex   2.889236e+001 -1.032761e+001 0.000000e+000
    endloop
  endfacet
  facet normal 0.000000e+000 1.000000e+000 0.000000e+000
    outer loop
      vertex   3.741030e+001 -6.843841e-007 1.000000e+001
      vertex   3.741030e+001 -6.843841e-007 0.000000e+000
      vertex   3.151326e+001 -6.843841e-007 1.000000e+001
    endloop
  endfacet
  facet normal 0.000000e+000 1.000000e+000 0.000000e+000
    outer loop
      vertex   3.151326e+001 -6.843841e-007 1.000000e+001
      vertex   3.741030e+001 -6.843841e-007 0.000000e+000
      vertex   3.151326e+001 -6.843841e-007 0.000000e+000
    endloop
  endfacet
  facet normal 9.699699e-001 -2.432251e-001 0.000000e+000
    outer loop
      vertex   3.482059e+001 -1.032761e+001 1.000000e+001
      vertex   3.482059e+001 -1.032761e+001 0.000000e+000
      vertex   3.741030e+001 -6.843841e-007 1.000000e+001
    endloop
  endfacet
  facet normal 9.699699e-001 -2.432251e-001 0.000000e+000
    outer loop
      vertex   3.741030e+001 -6.843841e-007 1.000000e+001
      vertex   3.482059e+001 -1.032761e+001 0.000000e+000
      vertex   3.741030e+001 -6.843841e-007 0.000000e+000
    endloop
  endfacet
  facet normal 0.000000e+000 1.000000e+000 0.000000e+000
    outer loop
      vertex   4.224649e+001 -1.032761e+001 1.000000e+001
      vertex   4.224649e+001 -1.032761e+001 0.000000e+000
      vertex   3.482059e+001 -1.032761e+001 1.000000e+001
    endloop
  endfacet
  facet normal 0.000000e+000 1.000000e+000 0.000000e+000
    outer loop
      vertex   3.482059e+001 -1.032761e+001 1.000000e+001
      vertex   4.224649e+001 -1.032761e+001 0.000000e+000
      vertex   3.482059e+001 -1.032761e+001 0.000000e+000
    endloop
  endfacet
  facet normal 1.000000e+000 -0.000000e+000 0.000000e+000
    outer loop
      vertex   4.224649e+001 -1.603744e+001 1.000000e+001
      vertex   4.224649e+001 -1.603744e+001 0.000000e+000
      vertex   4.224649e+001 -1.032761e+001 1.000000e+001
    endloop
  endfacet
  facet normal 1.000000e+000 -0.000000e+000 0.000000e+000
    outer loop
      vertex   4.224649e+001 -1.032761e+001 1.000000e+001
      vertex   4.224649e+001 -1.603744e+001 0.000000e+000
      vertex   4.224649e+001 -1.032761e+001 0.000000e+000
    endloop
  endfacet
  facet normal 0.000000e+000 -1.000000e+000 0.000000e+000
    outer loop
      vertex   3.341654e+001 -1.603744e+001 1.000000e+001
      vertex   3.341654e+001 -1.603744e+001 0.000000e+000
      vertex   4.224649e+001 -1.603744e+001 1.000000e+001
    endloop
  endfacet
  facet normal 0.000000e+000 -1.000000e+000 -0.000000e+000
    outer loop
      vertex   4.224649e+001 -1.603744e+001 1.000000e+001
      vertex   3.341654e+001 -1.603744e+001 0.000000e+000
      vertex   4.224649e+001 -1.603744e+001 0.000000e+000
    endloop
  endfacet
  facet normal 9.689177e-001 -2.473832e-001 0.000000e+000
    outer loop
      vertex   3.154446e+001 -2.336974e+001 1.000000e+001
      vertex   3.154446e+001 -2.336974e+001 0.000000e+000
      vertex   3.341654e+001 -1.603744e+001 1.000000e+001
    endloop
  endfacet
  facet normal 9.689177e-001 -2.473832e-001 0.000000e+000
    outer loop
      vertex   3.341654e+001 -1.603744e+001 1.000000e+001
      vertex   3.154446e+001 -2.336974e+001 0.000000e+000
      vertex   3.341654e+001 -1.603744e+001 0.000000e+000
    endloop
  endfacet
  facet normal 0.000000e+000 1.000000e+000 0.000000e+000
    outer loop
      vertex   3.915757e+001 -2.336974e+001 1.000000e+001
      vertex   3.915757e+001 -2.336974e+001 0.000000e+000
      vertex   3.154446e+001 -2.336974e+001 1.000000e+001
    endloop
  endfacet
  facet normal 0.000000e+000 1.000000e+000 0.000000e+000
    outer loop
      vertex   3.154446e+001 -2.336974e+001 1.000000e+001
      vertex   3.915757e+001 -2.336974e+001 0.000000e+000
      vertex   3.154446e+001 -2.336974e+001 0.000000e+000
    endloop
  endfacet
  facet normal 1.000000e+000 -0.000000e+000 0.000000e+000
    outer loop
      vertex   3.915757e+001 -2.914197e+001 1.000000e+001
      vertex   3.915757e+001 -2.914197e+001 0.000000e+000
      vertex   3.915757e+001 -2.336974e+001 1.000000e+001
    endloop
  endfacet
  facet normal 1.000000e+000 -0.000000e+000 0.000000e+000
    outer loop
      vertex   3.915757e+001 -2.336974e+001 1.000000e+001
      vertex   3.915757e+001 -2.914197e+001 0.000000e+000
      vertex   3.915757e+001 -2.336974e+001 0.000000e+000
    endloop
  endfacet
  facet normal 0.000000e+000 -1.000000e+000 0.000000e+000
    outer loop
      vertex   3.017161e+001 -2.914197e+001 1.000000e+001
      vertex   3.017161e+001 -2.914197e+001 0.000000e+000
      vertex   3.915757e+001 -2.914197e+001 1.000000e+001
    endloop
  endfacet
  facet normal 0.000000e+000 -1.000000e+000 -0.000000e+000
    outer loop
      vertex   3.915757e+001 -2.914197e+001 1.000000e+001
      vertex   3.017161e+001 -2.914197e+001 0.000000e+000
      vertex   3.915757e+001 -2.914197e+001 0.000000e+000
    endloop
  endfacet
  facet normal 9.696202e-001 -2.446154e-001 0.000000e+000
    outer loop
      vertex   2.758190e+001 -3.940718e+001 1.000000e+001
      vertex   2.758190e+001 -3.940718e+001 0.000000e+000
      vertex   3.017161e+001 -2.914197e+001 1.000000e+001
    endloop
  endfacet
  facet normal 9.696202e-001 -2.446154e-001 0.000000e+000
    outer loop
      vertex   3.017161e+001 -2.914197e+001 1.000000e+001
      vertex   2.758190e+001 -3.940718e+001 0.000000e+000
      vertex   3.017161e+001 -2.914197e+001 0.000000e+000
    endloop
  endfacet
  facet normal 0.000000e+000 -1.000000e+000 0.000000e+000
    outer loop
      vertex   2.165367e+001 -3.940718e+001 1.000000e+001
      vertex   2.165367e+001 -3.940718e+001 0.000000e+000
      vertex   2.758190e+001 -3.940718e+001 1.000000e+001
    endloop
  endfacet
  facet normal 0.000000e+000 -1.000000e+000 -0.000000e+000
    outer loop
      vertex   2.758190e+001 -3.940718e+001 1.000000e+001
      vertex   2.165367e+001 -3.940718e+001 0.000000e+000
      vertex   2.758190e+001 -3.940718e+001 0.000000e+000
    endloop
  endfacet
  facet normal -9.696202e-001 2.446154e-001 0.000000e+000
    outer loop
      vertex   2.424337e+001 -2.914197e+001 1.000000e+001
      vertex   2.424337e+001 -2.914197e+001 0.000000e+000
      vertex   2.165367e+001 -3.940718e+001 1.000000e+001
    endloop
  endfacet
  facet normal -9.696202e-001 2.446154e-001 0.000000e+000
    outer loop
      vertex   2.165367e+001 -3.940718e+001 1.000000e+001
      vertex   2.424337e+001 -2.914197e+001 0.000000e+000
      vertex   2.165367e+001 -3.940718e+001 0.000000e+000
    endloop
  endfacet
  facet normal 0.000000e+000 -1.000000e+000 0.000000e+000
    outer loop
      vertex   1.716069e+001 -2.914197e+001 1.000000e+001
      vertex   1.716069e+001 -2.914197e+001 0.000000e+000
      vertex   2.424337e+001 -2.914197e+001 1.000000e+001
    endloop
  endfacet
  facet normal 0.000000e+000 -1.000000e+000 -0.000000e+000
    outer loop
      vertex   2.424337e+001 -2.914197e+001 1.000000e+001
      vertex   1.716069e+001 -2.914197e+001 0.000000e+000
      vertex   2.424337e+001 -2.914197e+001 0.000000e+000
    endloop
  endfacet
  facet normal 9.703157e-001 -2.418416e-001 0.000000e+000
    outer loop
      vertex   1.460218e+001 -3.940718e+001 1.000000e+001
      vertex   1.460218e+001 -3.940718e+001 0.000000e+000
      vertex   1.716069e+001 -2.914197e+001 1.000000e+001
    endloop
  endfacet
  facet normal 9.703157e-001 -2.418416e-001 0.000000e+000
    outer loop
      vertex   1.716069e+001 -2.914197e+001 1.000000e+001
      vertex   1.460218e+001 -3.940718e+001 0.000000e+000
      vertex   1.716069e+001 -2.914197e+001 0.000000e+000
    endloop
  endfacet
  facet normal 0.000000e+000 -1.000000e+000 0.000000e+000
    outer loop
      vertex   8.611544e+000 -3.940718e+001 1.000000e+001
      vertex   8.611544e+000 -3.940718e+001 0.000000e+000
      vertex   1.460218e+001 -3.940718e+001 1.000000e+001
    endloop
  endfacet
  facet normal 0.000000e+000 -1.000000e+000 -0.000000e+000
    outer loop
      vertex   1.460218e+001 -3.940718e+001 1.000000e+001
      vertex   8.611544e+000 -3.940718e+001 0.000000e+000
      vertex   1.460218e+001 -3.940718e+001 0.000000e+000
    endloop
  endfacet
  facet normal -9.696202e-001 2.446154e-001 0.000000e+000
    outer loop
      vertex   1.120125e+001 -2.914197e+001 1.000000e+001
      vertex   1.120125e+001 -2.914197e+001 0.000000e+000
      vertex   8.611544e+000 -3.940718e+001 1.000000e+001
    endloop
  endfacet
  facet normal -9.696202e-001 2.446154e-001 0.000000e+000
    outer loop
      vertex   8.611544e+000 -3.940718e+001 1.000000e+001
      vertex   1.120125e+001 -2.914197e+001 0.000000e+000
      vertex   8.611544e+000 -3.940718e+001 0.000000e+000
    endloop
  endfacet
  facet normal 0.000000e+000 -1.000000e+000 0.000000e+000
    outer loop
      vertex   3.712949e+000 -2.914197e+001 1.000000e+001
      vertex   3.712949e+000 -2.914197e+001 0.000000e+000
      vertex   1.120125e+001 -2.914197e+001 1.000000e+001
    endloop
  endfacet
  facet normal 0.000000e+000 -1.000000e+000 -0.000000e+000
    outer loop
      vertex   1.120125e+001 -2.914197e+001 1.000000e+001
      vertex   3.712949e+000 -2.914197e+001 0.000000e+000
      vertex   1.120125e+001 -2.914197e+001 0.000000e+000
    endloop
  endfacet
  facet normal -1.000000e+000 7.693546e-017 0.000000e+000
    outer loop
      vertex   3.712949e+000 -2.336974e+001 1.000000e+001
      vertex   3.712949e+000 -2.336974e+001 0.000000e+000
      vertex   3.712949e+000 -2.914197e+001 1.000000e+001
    endloop
  endfacet
  facet normal -1.000000e+000 7.693546e-017 0.000000e+000
    outer loop
      vertex   3.712949e+000 -2.914197e+001 1.000000e+001
      vertex   3.712949e+000 -2.336974e+001 0.000000e+000
      vertex   3.712949e+000 -2.914197e+001 0.000000e+000
    endloop
  endfacet
  facet normal 0.000000e+000 1.000000e+000 0.000000e+000
    outer loop
      vertex   1.251170e+001 -2.336974e+001 1.000000e+001
      vertex   1.251170e+001 -2.336974e+001 0.000000e+000
      vertex   3.712949e+000 -2.336974e+001 1.000000e+001
    endloop
  endfacet
  facet normal 0.000000e+000 1.000000e+000 0.000000e+000
    outer loop
      vertex   3.712949e+000 -2.336974e+001 1.000000e+001
      vertex   1.251170e+001 -2.336974e+001 0.000000e+000
      vertex   3.712949e+000 -2.336974e+001 0.000000e+000
    endloop
  endfacet
  facet normal -9.689177e-001 2.473832e-001 0.000000e+000
    outer loop
      vertex   1.438378e+001 -1.603744e+001 1.000000e+001
      vertex   1.438378e+001 -1.603744e+001 0.000000e+000
      vertex   1.251170e+001 -2.336974e+001 1.000000e+001
    endloop
  endfacet
  facet normal -9.689177e-001 2.473832e-001 0.000000e+000
    outer loop
      vertex   1.251170e+001 -2.336974e+001 1.000000e+001
      vertex   1.438378e+001 -1.603744e+001 0.000000e+000
      vertex   1.251170e+001 -2.336974e+001 0.000000e+000
    endloop
  endfacet
  facet normal 0.000000e+000 -1.000000e+000 0.000000e+000
    outer loop
      vertex   6.801872e+000 -1.603744e+001 1.000000e+001
      vertex   6.801872e+000 -1.603744e+001 0.000000e+000
      vertex   1.438378e+001 -1.603744e+001 1.000000e+001
    endloop
  endfacet
  facet normal 0.000000e+000 -1.000000e+000 -0.000000e+000
    outer loop
      vertex   1.438378e+001 -1.603744e+001 1.000000e+001
      vertex   6.801872e+000 -1.603744e+001 0.000000e+000
      vertex   1.438378e+001 -1.603744e+001 0.000000e+000
    endloop
  endfacet
  facet normal -1.000000e+000 -0.000000e+000 -0.000000e+000
    outer loop
      vertex   6.801872e+000 -1.032761e+001 1.000000e+001
      vertex   6.801872e+000 -1.032761e+001 0.000000e+000
      vertex   6.801872e+000 -1.603744e+001 1.000000e+001
    endloop
  endfacet
  facet normal -1.000000e+000 -0.000000e+000 -0.000000e+000
    outer loop
      vertex   6.801872e+000 -1.603744e+001 1.000000e+001
      vertex   6.801872e+000 -1.032761e+001 0.000000e+000
      vertex   6.801872e+000 -1.603744e+001 0.000000e+000
    endloop
  endfacet
  facet normal 0.000000e+000 1.000000e+000 0.000000e+000
    outer loop
      vertex   1.585023e+001 -1.032761e+001 1.000000e+001
      vertex   1.585023e+001 -1.032761e+001 0.000000e+000
      vertex   6.801872e+000 -1.032761e+001 1.000000e+001
    endloop
  endfacet
  facet normal 0.000000e+000 1.000000e+000 0.000000e+000
    outer loop
      vertex   6.801872e+000 -1.032761e+001 1.000000e+001
      vertex   1.585023e+001 -1.032761e+001 0.000000e+000
      vertex   6.801872e+000 -1.032761e+001 0.000000e+000
    endloop
  endfacet
  facet normal -9.699699e-001 2.432251e-001 0.000000e+000
    outer loop
      vertex   1.843994e+001 -6.843841e-007 1.000000e+001
      vertex   1.843994e+001 -6.843841e-007 0.000000e+000
      vertex   1.585023e+001 -1.032761e+001 1.000000e+001
    endloop
  endfacet
  facet normal -9.699699e-001 2.432251e-001 0.000000e+000
    outer loop
      vertex   1.585023e+001 -1.032761e+001 1.000000e+001
      vertex   1.843994e+001 -6.843841e-007 0.000000e+000
      vertex   1.585023e+001 -1.032761e+001 0.000000e+000
    endloop
  endfacet
  facet normal 0.000000e+000 1.000000e+000 0.000000e+000
    outer loop
      vertex   2.439938e+001 -6.843841e-007 1.000000e+001
      vertex   2.439938e+001 -6.843841e-007 0.000000e+000
      vertex   1.843994e+001 -6.843841e-007 1.000000e+001
    endloop
  endfacet
  facet normal 0.000000e+000 1.000000e+000 0.000000e+000
    outer loop
      vertex   1.843994e+001 -6.843841e-007 1.000000e+001
      vertex   2.439938e+001 -6.843841e-007 0.000000e+000
      vertex   1.843994e+001 -6.843841e-007 0.000000e+000
    endloop
  endfacet
  facet normal 9.706578e-001 -2.404651e-001 0.000000e+000
    outer loop
      vertex   2.184087e+001 -1.032761e+001 1.000000e+001
      vertex   2.184087e+001 -1.032761e+001 0.000000e+000
      vertex   2.439938e+001 -6.843841e-007 1.000000e+001
    endloop
  endfacet
  facet normal 9.706578e-001 -2.404651e-001 0.000000e+000
    outer loop
      vertex   2.439938e+001 -6.843841e-007 1.000000e+001
      vertex   2.184087e+001 -1.032761e+001 0.000000e+000
      vertex   2.439938e+001 -6.843841e-007 0.000000e+000
    endloop
  endfacet
  facet normal 0.000000e+000 -0.000000e+000 1.000000e+000
    outer loop
      vertex   2.555382e+001 -2.336974e+001 1.000000e+001
      vertex   3.154446e+001 -2.336974e+001 1.000000e+001
      vertex   2.742590e+001 -1.603744e+001 1.000000e+001
    endloop
  endfacet
  facet normal -0.000000e+000 0.000000e+000 1.000000e+000
    outer loop
      vertex   2.555382e+001 -2.336974e+001 1.000000e+001
      vertex   3.017161e+001 -2.914197e+001 1.000000e+001
      vertex   3.154446e+001 -2.336974e+001 1.000000e+001
    endloop
  endfacet
  facet normal -0.000000e+000 0.000000e+000 1.000000e+000
    outer loop
      vertex   2.555382e+001 -2.336974e+001 1.000000e+001
      vertex   2.424337e+001 -2.914197e+001 1.000000e+001
      vertex   3.017161e+001 -2.914197e+001 1.000000e+001
    endloop
  endfacet
  facet normal 0.000000e+000 0.000000e+000 1.000000e+000
    outer loop
      vertex   2.555382e+001 -2.336974e+001 1.000000e+001
      vertex   1.847114e+001 -2.336974e+001 1.000000e+001
      vertex   2.424337e+001 -2.914197e+001 1.000000e+001
    endloop
  endfacet
  facet normal 0.000000e+000 0.000000e+000 1.000000e+000
    outer loop
      vertex   2.424337e+001 -2.914197e+001 1.000000e+001
      vertex   1.847114e+001 -2.336974e+001 1.000000e+001
      vertex   1.716069e+001 -2.914197e+001 1.000000e+001
    endloop
  endfacet
  facet normal 0.000000e+000 -0.000000e+000 1.000000e+000
    outer loop
      vertex   1.716069e+001 -2.914197e+001 1.000000e+001
      vertex   1.847114e+001 -2.336974e+001 1.000000e+001
      vertex   1.251170e+001 -2.336974e+001 1.000000e+001
    endloop
  endfacet
  facet normal 0.000000e+000 -0.000000e+000 1.000000e+000
    outer loop
      vertex   1.120125e+001 -2.914197e+001 1.000000e+001
      vertex   1.251170e+001 -2.336974e+001 1.000000e+001
      vertex   3.712949e+000 -2.336974e+001 1.000000e+001
    endloop
  endfacet
  facet normal 0.000000e+000 -0.000000e+000 1.000000e+000
    outer loop
      vertex   3.712949e+000 -2.914197e+001 1.000000e+001
      vertex   1.120125e+001 -2.914197e+001 1.000000e+001
      vertex   3.712949e+000 -2.336974e+001 1.000000e+001
    endloop
  endfacet
  facet normal 0.000000e+000 -0.000000e+000 1.000000e+000
    outer loop
      vertex   1.251170e+001 -2.336974e+001 1.000000e+001
      vertex   1.847114e+001 -2.336974e+001 1.000000e+001
      vertex   1.438378e+001 -1.603744e+001 1.000000e+001
    endloop
  endfacet
  facet normal -0.000000e+000 0.000000e+000 1.000000e+000
    outer loop
      vertex   1.438378e+001 -1.603744e+001 1.000000e+001
      vertex   1.847114e+001 -2.336974e+001 1.000000e+001
      vertex   2.034321e+001 -1.603744e+001 1.000000e+001
    endloop
  endfacet
  facet normal -0.000000e+000 0.000000e+000 1.000000e+000
    outer loop
      vertex   1.585023e+001 -1.032761e+001 1.000000e+001
      vertex   2.034321e+001 -1.603744e+001 1.000000e+001
      vertex   2.184087e+001 -1.032761e+001 1.000000e+001
    endloop
  endfacet
  facet normal -0.000000e+000 0.000000e+000 1.000000e+000
    outer loop
      vertex   1.843994e+001 -6.843841e-007 1.000000e+001
      vertex   2.184087e+001 -1.032761e+001 1.000000e+001
      vertex   2.439938e+001 -6.843841e-007 1.000000e+001
    endloop
  endfacet
  facet normal -0.000000e+000 0.000000e+000 1.000000e+000
    outer loop
      vertex   1.843994e+001 -6.843841e-007 1.000000e+001
      vertex   1.585023e+001 -1.032761e+001 1.000000e+001
      vertex   2.184087e+001 -1.032761e+001 1.000000e+001
    endloop
  endfacet
  facet normal 0.000000e+000 -0.000000e+000 1.000000e+000
    outer loop
      vertex   2.034321e+001 -1.603744e+001 1.000000e+001
      vertex   2.742590e+001 -1.603744e+001 1.000000e+001
      vertex   2.184087e+001 -1.032761e+001 1.000000e+001
    endloop
  endfacet
  facet normal -0.000000e+000 0.000000e+000 1.000000e+000
    outer loop
      vertex   2.184087e+001 -1.032761e+001 1.000000e+001
      vertex   2.742590e+001 -1.603744e+001 1.000000e+001
      vertex   2.889236e+001 -1.032761e+001 1.000000e+001
    endloop
  endfacet
  facet normal -0.000000e+000 0.000000e+000 1.000000e+000
    outer loop
      vertex   2.889236e+001 -1.032761e+001 1.000000e+001
      vertex   2.742590e+001 -1.603744e+001 1.000000e+001
      vertex   3.341654e+001 -1.603744e+001 1.000000e+001
    endloop
  endfacet
  facet normal -0.000000e+000 0.000000e+000 1.000000e+000
    outer loop
      vertex   3.482059e+001 -1.032761e+001 1.000000e+001
      vertex   3.341654e+001 -1.603744e+001 1.000000e+001
      vertex   4.224649e+001 -1.603744e+001 1.000000e+001
    endloop
  endfacet
  facet normal 0.000000e+000 0.000000e+000 1.000000e+000
    outer loop
      vertex   4.224649e+001 -1.032761e+001 1.000000e+001
      vertex   3.482059e+001 -1.032761e+001 1.000000e+001
      vertex   4.224649e+001 -1.603744e+001 1.000000e+001
    endloop
  endfacet
  facet normal 0.000000e+000 0.000000e+000 1.000000e+000
    outer loop
      vertex   2.034321e+001 -1.603744e+001 1.000000e+001
      vertex   1.585023e+001 -1.032761e+001 1.000000e+001
      vertex   1.438378e+001 -1.603744e+001 1.000000e+001
    endloop
  endfacet
  facet normal 0.000000e+000 -0.000000e+000 1.000000e+000
    outer loop
      vertex   1.438378e+001 -1.603744e+001 1.000000e+001
      vertex   1.585023e+001 -1.032761e+001 1.000000e+001
      vertex   6.801872e+000 -1.032761e+001 1.000000e+001
    endloop
  endfacet
  facet normal 0.000000e+000 -0.000000e+000 1.000000e+000
    outer loop
      vertex   6.801872e+000 -1.603744e+001 1.000000e+001
      vertex   1.438378e+001 -1.603744e+001 1.000000e+001
      vertex   6.801872e+000 -1.032761e+001 1.000000e+001
    endloop
  endfacet
  facet normal 0.000000e+000 0.000000e+000 1.000000e+000
    outer loop
      vertex   1.716069e+001 -2.914197e+001 1.000000e+001
      vertex   1.251170e+001 -2.336974e+001 1.000000e+001
      vertex   1.120125e+001 -2.914197e+001 1.000000e+001
    endloop
  endfacet
  facet normal 0.000000e+000 0.000000e+000 1.000000e+000
    outer loop
      vertex   1.460218e+001 -3.940718e+001 1.000000e+001
      vertex   1.120125e+001 -2.914197e+001 1.000000e+001
      vertex   8.611544e+000 -3.940718e+001 1.000000e+001
    endloop
  endfacet
  facet normal 0.000000e+000 -0.000000e+000 1.000000e+000
    outer loop
      vertex   1.460218e+001 -3.940718e+001 1.000000e+001
      vertex   1.716069e+001 -2.914197e+001 1.000000e+001
      vertex   1.120125e+001 -2.914197e+001 1.000000e+001
    endloop
  endfacet
  facet normal 0.000000e+000 -0.000000e+000 1.000000e+000
    outer loop
      vertex   2.165367e+001 -3.940718e+001 1.000000e+001
      vertex   2.758190e+001 -3.940718e+001 1.000000e+001
      vertex   2.424337e+001 -2.914197e+001 1.000000e+001
    endloop
  endfacet
  facet normal -0.000000e+000 0.000000e+000 1.000000e+000
    outer loop
      vertex   2.424337e+001 -2.914197e+001 1.000000e+001
      vertex   2.758190e+001 -3.940718e+001 1.000000e+001
      vertex   3.017161e+001 -2.914197e+001 1.000000e+001
    endloop
  endfacet
  facet normal 0.000000e+000 -0.000000e+000 1.000000e+000
    outer loop
      vertex   3.017161e+001 -2.914197e+001 1.000000e+001
      vertex   3.915757e+001 -2.914197e+001 1.000000e+001
      vertex   3.154446e+001 -2.336974e+001 1.000000e+001
    endloop
  endfacet
  facet normal -0.000000e+000 0.000000e+000 1.000000e+000
    outer loop
      vertex   3.154446e+001 -2.336974e+001 1.000000e+001
      vertex   3.915757e+001 -2.914197e+001 1.000000e+001
      vertex   3.915757e+001 -2.336974e+001 1.000000e+001
    endloop
  endfacet
  facet normal 0.000000e+000 -0.000000e+000 1.000000e+000
    outer loop
      vertex   3.154446e+001 -2.336974e+001 1.000000e+001
      vertex   3.341654e+001 -1.603744e+001 1.000000e+001
      vertex   2.742590e+001 -1.603744e+001 1.000000e+001
    endloop
  endfacet
  facet normal -0.000000e+000 0.000000e+000 1.000000e+000
    outer loop
      vertex   2.889236e+001 -1.032761e+001 1.000000e+001
      vertex   3.341654e+001 -1.603744e+001 1.000000e+001
      vertex   3.482059e+001 -1.032761e+001 1.000000e+001
    endloop
  endfacet
  facet normal -0.000000e+000 0.000000e+000 1.000000e+000
    outer loop
      vertex   3.151326e+001 -6.843841e-007 1.000000e+001
      vertex   3.482059e+001 -1.032761e+001 1.000000e+001
      vertex   3.741030e+001 -6.843841e-007 1.000000e+001
    endloop
  endfacet
  facet normal -0.000000e+000 0.000000e+000 1.000000e+000
    outer loop
      vertex   3.151326e+001 -6.843841e-007 1.000000e+001
      vertex   2.889236e+001 -1.032761e+001 1.000000e+001
      vertex   3.482059e+001 -1.032761e+001 1.000000e+001
    endloop
  endfacet
  facet normal -0.000000e+000 -0.000000e+000 -1.000000e+000
    outer loop
      vertex   2.742590e+001 -1.603744e+001 0.000000e+000
      vertex   3.154446e+001 -2.336974e+001 0.000000e+000
      vertex   2.555382e+001 -2.336974e+001 0.000000e+000
    endloop
  endfacet
  facet normal 0.000000e+000 -0.000000e+000 -1.000000e+000
    outer loop
      vertex   2.742590e+001 -1.603744e+001 0.000000e+000
      vertex   3.341654e+001 -1.603744e+001 0.000000e+000
      vertex   3.154446e+001 -2.336974e+001 0.000000e+000
    endloop
  endfacet
  facet normal 0.000000e+000 0.000000e+000 -1.000000e+000
    outer loop
      vertex   2.742590e+001 -1.603744e+001 0.000000e+000
      vertex   2.889236e+001 -1.032761e+001 0.000000e+000
      vertex   3.341654e+001 -1.603744e+001 0.000000e+000
    endloop
  endfacet
  facet normal 0.000000e+000 0.000000e+000 -1.000000e+000
    outer loop
      vertex   2.742590e+001 -1.603744e+001 0.000000e+000
      vertex   2.184087e+001 -1.032761e+001 0.000000e+000
      vertex   2.889236e+001 -1.032761e+001 0.000000e+000
    endloop
  endfacet
  facet normal 0.000000e+000 0.000000e+000 -1.000000e+000
    outer loop
      vertex   2.742590e+001 -1.603744e+001 0.000000e+000
      vertex   2.034321e+001 -1.603744e+001 0.000000e+000
      vertex   2.184087e+001 -1.032761e+001 0.000000e+000
    endloop
  endfacet
  facet normal -0.000000e+000 0.000000e+000 -1.000000e+000
    outer loop
      vertex   2.184087e+001 -1.032761e+001 0.000000e+000
      vertex   2.034321e+001 -1.603744e+001 0.000000e+000
      vertex   1.585023e+001 -1.032761e+001 0.000000e+000
    endloop
  endfacet
  facet normal -0.000000e+000 -0.000000e+000 -1.000000e+000
    outer loop
      vertex   1.843994e+001 -6.843841e-007 0.000000e+000
      vertex   2.184087e+001 -1.032761e+001 0.000000e+000
      vertex   1.585023e+001 -1.032761e+001 0.000000e+000
    endloop
  endfacet
  facet normal 0.000000e+000 -0.000000e+000 -1.000000e+000
    outer loop
      vertex   1.843994e+001 -6.843841e-007 0.000000e+000
      vertex   2.439938e+001 -6.843841e-007 0.000000e+000
      vertex   2.184087e+001 -1.032761e+001 0.000000e+000
    endloop
  endfacet
  facet normal -0.000000e+000 -0.000000e+000 -1.000000e+000
    outer loop
      vertex   1.585023e+001 -1.032761e+001 0.000000e+000
      vertex   2.034321e+001 -1.603744e+001 0.000000e+000
      vertex   1.438378e+001 -1.603744e+001 0.000000e+000
    endloop
  endfacet
  facet normal -0.000000e+000 -0.000000e+000 -1.000000e+000
    outer loop
      vertex   6.801872e+000 -1.032761e+001 0.000000e+000
      vertex   1.438378e+001 -1.603744e+001 0.000000e+000
      vertex   6.801872e+000 -1.603744e+001 0.000000e+000
    endloop
  endfacet
  facet normal 0.000000e+000 -0.000000e+000 -1.000000e+000
    outer loop
      vertex   6.801872e+000 -1.032761e+001 0.000000e+000
      vertex   1.585023e+001 -1.032761e+001 0.000000e+000
      vertex   1.438378e+001 -1.603744e+001 0.000000e+000
    endloop
  endfacet
  facet normal -0.000000e+000 0.000000e+000 -1.000000e+000
    outer loop
      vertex   2.555382e+001 -2.336974e+001 0.000000e+000
      vertex   2.424337e+001 -2.914197e+001 0.000000e+000
      vertex   1.847114e+001 -2.336974e+001 0.000000e+000
    endloop
  endfacet
  facet normal -0.000000e+000 -0.000000e+000 -1.000000e+000
    outer loop
      vertex   2.555382e+001 -2.336974e+001 0.000000e+000
      vertex   3.017161e+001 -2.914197e+001 0.000000e+000
      vertex   2.424337e+001 -2.914197e+001 0.000000e+000
    endloop
  endfacet
  facet normal 0.000000e+000 -0.000000e+000 -1.000000e+000
    outer loop
      vertex   2.555382e+001 -2.336974e+001 0.000000e+000
      vertex   3.154446e+001 -2.336974e+001 0.000000e+000
      vertex   3.017161e+001 -2.914197e+001 0.000000e+000
    endloop
  endfacet
  facet normal 0.000000e+000 0.000000e+000 -1.000000e+000
    outer loop
      vertex   3.017161e+001 -2.914197e+001 0.000000e+000
      vertex   3.154446e+001 -2.336974e+001 0.000000e+000
      vertex   3.915757e+001 -2.914197e+001 0.000000e+000
    endloop
  endfacet
  facet normal 0.000000e+000 0.000000e+000 -1.000000e+000
    outer loop
      vertex   3.915757e+001 -2.914197e+001 0.000000e+000
      vertex   3.154446e+001 -2.336974e+001 0.000000e+000
      vertex   3.915757e+001 -2.336974e+001 0.000000e+000
    endloop
  endfacet
  facet normal 0.000000e+000 0.000000e+000 -1.000000e+000
    outer loop
      vertex   3.341654e+001 -1.603744e+001 0.000000e+000
      vertex   2.889236e+001 -1.032761e+001 0.000000e+000
      vertex   3.482059e+001 -1.032761e+001 0.000000e+000
    endloop
  endfacet
  facet normal 0.000000e+000 0.000000e+000 -1.000000e+000
    outer loop
      vertex   4.224649e+001 -1.603744e+001 0.000000e+000
      vertex   3.482059e+001 -1.032761e+001 0.000000e+000
      vertex   4.224649e+001 -1.032761e+001 0.000000e+000
    endloop
  endfacet
  facet normal 0.000000e+000 0.000000e+000 -1.000000e+000
    outer loop
      vertex   4.224649e+001 -1.603744e+001 0.000000e+000
      vertex   3.341654e+001 -1.603744e+001 0.000000e+000
      vertex   3.482059e+001 -1.032761e+001 0.000000e+000
    endloop
  endfacet
  facet normal -0.000000e+000 0.000000e+000 -1.000000e+000
    outer loop
      vertex   3.741030e+001 -6.843841e-007 0.000000e+000
      vertex   3.482059e+001 -1.032761e+001 0.000000e+000
      vertex   3.151326e+001 -6.843841e-007 0.000000e+000
    endloop
  endfacet
  facet normal -0.000000e+000 -0.000000e+000 -1.000000e+000
    outer loop
      vertex   3.151326e+001 -6.843841e-007 0.000000e+000
      vertex   3.482059e+001 -1.032761e+001 0.000000e+000
      vertex   2.889236e+001 -1.032761e+001 0.000000e+000
    endloop
  endfacet
  facet normal -0.000000e+000 0.000000e+000 -1.000000e+000
    outer loop
      vertex   3.017161e+001 -2.914197e+001 0.000000e+000
      vertex   2.758190e+001 -3.940718e+001 0.000000e+000
      vertex   2.424337e+001 -2.914197e+001 0.000000e+000
    endloop
  endfacet
  facet normal -0.000000e+000 -0.000000e+000 -1.000000e+000
    outer loop
      vertex   2.424337e+001 -2.914197e+001 0.000000e+000
      vertex   2.758190e+001 -3.940718e+001 0.000000e+000
      vertex   2.165367e+001 -3.940718e+001 0.000000e+000
    endloop
  endfacet
  facet normal 0.000000e+000 0.000000e+000 -1.000000e+000
    outer loop
      vertex   2.424337e+001 -2.914197e+001 0.000000e+000
      vertex   1.716069e+001 -2.914197e+001 0.000000e+000
      vertex   1.847114e+001 -2.336974e+001 0.000000e+000
    endloop
  endfacet
  facet normal -0.000000e+000 0.000000e+000 -1.000000e+000
    outer loop
      vertex   1.847114e+001 -2.336974e+001 0.000000e+000
      vertex   1.716069e+001 -2.914197e+001 0.000000e+000
      vertex   1.251170e+001 -2.336974e+001 0.000000e+000
    endloop
  endfacet
  facet normal -0.000000e+000 -0.000000e+000 -1.000000e+000
    outer loop
      vertex   1.438378e+001 -1.603744e+001 0.000000e+000
      vertex   1.847114e+001 -2.336974e+001 0.000000e+000
      vertex   1.251170e+001 -2.336974e+001 0.000000e+000
    endloop
  endfacet
  facet normal 0.000000e+000 -0.000000e+000 -1.000000e+000
    outer loop
      vertex   1.438378e+001 -1.603744e+001 0.000000e+000
      vertex   2.034321e+001 -1.603744e+001 0.000000e+000
      vertex   1.847114e+001 -2.336974e+001 0.000000e+000
    endloop
  endfacet
  facet normal -0.000000e+000 -0.000000e+000 -1.000000e+000
    outer loop
      vertex   1.251170e+001 -2.336974e+001 0.000000e+000
      vertex   1.716069e+001 -2.914197e+001 0.000000e+000
      vertex   1.120125e+001 -2.914197e+001 0.000000e+000
    endloop
  endfacet
  facet normal -0.000000e+000 -0.000000e+000 -1.000000e+000
    outer loop
      vertex   3.712949e+000 -2.336974e+001 0.000000e+000
      vertex   1.120125e+001 -2.914197e+001 0.000000e+000
      vertex   3.712949e+000 -2.914197e+001 0.000000e+000
    endloop
  endfacet
  facet normal 0.000000e+000 -0.000000e+000 -1.000000e+000
    outer loop
      vertex   3.712949e+000 -2.336974e+001 0.000000e+000
      vertex   1.251170e+001 -2.336974e+001 0.000000e+000
      vertex   1.120125e+001 -2.914197e+001 0.000000e+000
    endloop
  endfacet
  facet normal 0.000000e+000 0.000000e+000 -1.000000e+000
    outer loop
      vertex   8.611544e+000 -3.940718e+001 0.000000e+000
      vertex   1.120125e+001 -2.914197e+001 0.000000e+000
      vertex   1.460218e+001 -3.940718e+001 0.000000e+000
    endloop
  endfacet
  facet normal 0.000000e+000 0.000000e+000 -1.000000e+000
    outer loop
      vertex   1.460218e+001 -3.940718e+001 0.000000e+000
      vertex   1.120125e+001 -2.914197e+001 0.000000e+000
      vertex   1.716069e+001 -2.914197e+001 0.000000e+000
    endloop
  endfacet
endsolid