solid ascii
  facet normal 0.000000e+000 1.000000e+000 0.000000e+000
    outer loop
      vertex   4.018721e+001 -1.404056e+001 1.000000e+001
      vertex   4.018721e+001 -1.404056e+001 0.000000e+000
      vertex   2.617785e+001 -1.404056e+001 1.000000e+001
    endloop
  endfacet
  facet normal 0.000000e+000 1.000000e+000 0.000000e+000
    outer loop
      vertex   2.617785e+001 -1.404056e+001 1.000000e+001
      vertex   4.018721e+001 -1.404056e+001 0.000000e+000
      vertex   2.617785e+001 -1.404056e+001 0.000000e+000
    endloop
  endfacet
  facet normal 1.000000e+000 -0.000000e+000 0.000000e+000
    outer loop
      vertex   4.018721e+001 -2.037441e+001 1.000000e+001
      vertex   4.018721e+001 -2.037441e+001 0.000000e+000
      vertex   4.018721e+001 -1.404056e+001 1.000000e+001
    endloop
  endfacet
  facet normal 1.000000e+000 -0.000000e+000 0.000000e+000
    outer loop
      vertex   4.018721e+001 -1.404056e+001 1.000000e+001
      vertex   4.018721e+001 -2.037441e+001 0.000000e+000
      vertex   4.018721e+001 -1.404056e+001 0.000000e+000
    endloop
  endfacet
  facet normal 0.000000e+000 -1.000000e+000 0.000000e+000
    outer loop
      vertex   2.617785e+001 -2.037441e+001 1.000000e+001
      vertex   2.617785e+001 -2.037441e+001 0.000000e+000
      vertex   4.018721e+001 -2.037441e+001 1.000000e+001
    endloop
  endfacet
  facet normal 0.000000e+000 -1.000000e+000 -0.000000e+000
    outer loop
      vertex   4.018721e+001 -2.037441e+001 1.000000e+001
      vertex   2.617785e+001 -2.037441e+001 0.000000e+000
      vertex   4.018721e+001 -2.037441e+001 0.000000e+000
    endloop
  endfacet
  facet normal 1.000000e+000 -0.000000e+000 0.000000e+000
    outer loop
      vertex   2.617785e+001 -3.441498e+001 1.000000e+001
      vertex   2.617785e+001 -3.441498e+001 0.000000e+000
      vertex   2.617785e+001 -2.037441e+001 1.000000e+001
    endloop
  endfacet
  facet normal 1.000000e+000 -0.000000e+000 0.000000e+000
    outer loop
      vertex   2.617785e+001 -2.037441e+001 1.000000e+001
      vertex   2.617785e+001 -3.441498e+001 0.000000e+000
      vertex   2.617785e+001 -2.037441e+001 0.000000e+000
    endloop
  endfacet
  facet normal 0.000000e+000 -1.000000e+000 0.000000e+000
    outer loop
      vertex   1.981279e+001 -3.441498e+001 1.000000e+001
      vertex   1.981279e+001 -3.441498e+001 0.000000e+000
      vertex   2.617785e+001 -3.441498e+001 1.000000e+001
    endloop
  endfacet
  facet normal 0.000000e+000 -1.000000e+000 -0.000000e+000
    outer loop
      vertex   2.617785e+001 -3.441498e+001 1.000000e+001
      vertex   1.981279e+001 -3.441498e+001 0.000000e+000
      vertex   2.617785e+001 -3.441498e+001 0.000000e+000
    endloop
  endfacet
  facet normal -1.000000e+000 -0.000000e+000 -0.000000e+000
    outer loop
      vertex   1.981279e+001 -2.037441e+001 1.000000e+001
      vertex   1.981279e+001 -2.037441e+001 0.000000e+000
      vertex   1.981279e+001 -3.441498e+001 1.000000e+001
    endloop
  endfacet
  facet normal -1.000000e+000 -0.000000e+000 -0.000000e+000
    outer loop
      vertex   1.981279e+001 -3.441498e+001 1.000000e+001
      vertex   1.981279e+001 -2.037441e+001 0.000000e+000
      vertex   1.981279e+001 -3.441498e+001 0.000000e+000
    endloop
  endfacet
  facet normal 0.000000e+000 -1.000000e+000 0.000000e+000
    outer loop
      vertex   5.803432e+000 -2.037441e+001 1.000000e+001
      vertex   5.803432e+000 -2.037441e+001 0.000000e+000
      vertex   1.981279e+001 -2.037441e+001 1.000000e+001
    endloop
  endfacet
  facet normal 0.000000e+000 -1.000000e+000 -0.000000e+000
    outer loop
      vertex   1.981279e+001 -2.037441e+001 1.000000e+001
      vertex   5.803432e+000 -2.037441e+001 0.000000e+000
      vertex   1.981279e+001 -2.037441e+001 0.000000e+000
    endloop
  endfacet
  facet normal -1.000000e+000 -0.000000e+000 -0.000000e+000
    outer loop
      vertex   5.803432e+000 -1.404056e+001 1.000000e+001
      vertex   5.803432e+000 -1.404056e+001 0.000000e+000
      vertex   5.803432e+000 -2.037441e+001 1.000000e+001
    endloop
  endfacet
  facet normal -1.000000e+000 -0.000000e+000 -0.000000e+000
    outer loop
      vertex   5.803432e+000 -2.037441e+001 1.000000e+001
      vertex   5.803432e+000 -1.404056e+001 0.000000e+000
      vertex   5.803432e+000 -2.037441e+001 0.000000e+000
    endloop
  endfacet
  facet normal 0.000000e+000 1.000000e+000 0.000000e+000
    outer loop
      vertex   1.981279e+001 -1.404056e+001 1.000000e+001
      vertex   1.981279e+001 -1.404056e+001 0.000000e+000
      vertex   5.803432e+000 -1.404056e+001 1.000000e+001
    endloop
  endfacet
  facet normal 0.000000e+000 1.000000e+000 0.000000e+000
    outer loop
      vertex   5.803432e+000 -1.404056e+001 1.000000e+001
      vertex   1.981279e+001 -1.404056e+001 0.000000e+000
      vertex   5.803432e+000 -1.404056e+001 0.000000e+000
    endloop
  endfacet
  facet normal -1.000000e+000 -0.000000e+000 -0.000000e+000
    outer loop
      vertex   1.981279e+001 9.559060e-007 1.000000e+001
      vertex   1.981279e+001 9.559060e-007 0.000000e+000
      vertex   1.981279e+001 -1.404056e+001 1.000000e+001
    endloop
  endfacet
  facet normal -1.000000e+000 -0.000000e+000 -0.000000e+000
    outer loop
      vertex   1.981279e+001 -1.404056e+001 1.000000e+001
      vertex   1.981279e+001 9.559060e-007 0.000000e+000
      vertex   1.981279e+001 -1.404056e+001 0.000000e+000
    endloop
  endfacet
  facet normal 0.000000e+000 1.000000e+000 0.000000e+000
    outer loop
      vertex   2.617785e+001 9.559060e-007 1.000000e+001
      vertex   2.617785e+001 9.559060e-007 0.000000e+000
      vertex   1.981279e+001 9.559060e-007 1.000000e+001
    endloop
  endfacet
  facet normal 0.000000e+000 1.000000e+000 0.000000e+000
    outer loop
      vertex   1.981279e+001 9.559060e-007 1.000000e+001
      vertex   2.617785e+001 9.559060e-007 0.000000e+000
      vertex   1.981279e+001 9.559060e-007 0.000000e+000
    endloop
  endfacet
  facet normal 1.000000e+000 -0.000000e+000 0.000000e+000
    outer loop
      vertex   2.617785e+001 -1.404056e+001 1.000000e+001
      vertex   2.617785e+001 -1.404056e+001 0.000000e+000
      vertex   2.617785e+001 9.559060e-007 1.000000e+001
    endloop
  endfacet
  facet normal 1.000000e+000 -0.000000e+000 0.000000e+000
    outer loop
      vertex   2.617785e+001 9.559060e-007 1.000000e+001
      vertex   2.617785e+001 -1.404056e+001 0.000000e+000
      vertex   2.617785e+001 9.559060e-007 0.000000e+000
    endloop
  endfacet
  facet normal 0.000000e+000 0.000000e+000 1.000000e+000
    outer loop
      vertex   4.018721e+001 -1.404056e+001 1.000000e+001
      vertex   2.617785e+001 -1.404056e+001 1.000000e+001
      vertex   4.018721e+001 -2.037441e+001 1.000000e+001
    endloop
  endfacet
  facet normal 0.000000e+000 0.000000e+000 1.000000e+000
    outer loop
      vertex   4.018721e+001 -2.037441e+001 1.000000e+001
      vertex   2.617785e+001 -1.404056e+001 1.000000e+001
      vertex   2.617785e+001 -2.037441e+001 1.000000e+001
    endloop
  endfacet
  facet normal 0.000000e+000 -0.000000e+000 1.000000e+000
    outer loop
      vertex   2.617785e+001 -2.037441e+001 1.000000e+001
      vertex   2.617785e+001 -1.404056e+001 1.000000e+001
      vertex   1.981279e+001 -1.404056e+001 1.000000e+001
    endloop
  endfacet
  facet normal 0.000000e+000 -0.000000e+000 1.000000e+000
    outer loop
      vertex   1.981279e+001 -2.037441e+001 1.000000e+001
      vertex   1.981279e+001 -1.404056e+001 1.000000e+001
      vertex   5.803432e+000 -1.404056e+001 1.000000e+001
    endloop
  endfacet
  facet normal 0.000000e+000 -0.000000e+000 1.000000e+000
    outer loop
      vertex   5.803432e+000 -2.037441e+001 1.000000e+001
      vertex   1.981279e+001 -2.037441e+001 1.000000e+001
      vertex   5.803432e+000 -1.404056e+001 1.000000e+001
    endloop
  endfacet
  facet normal 0.000000e+000 0.000000e+000 1.000000e+000
    outer loop
      vertex   2.617785e+001 9.559060e-007 1.000000e+001
      vertex   1.981279e+001 9.559060e-007 1.000000e+001
      vertex   2.617785e+001 -1.404056e+001 1.000000e+001
    endloop
  endfacet
  facet normal 0.000000e+000 0.000000e+000 1.000000e+000
    outer loop
      vertex   2.617785e+001 -1.404056e+001 1.000000e+001
      vertex   1.981279e+001 9.559060e-007 1.000000e+001
      vertex   1.981279e+001 -1.404056e+001 1.000000e+001
    endloop
  endfacet
  facet normal 0.000000e+000 0.000000e+000 1.000000e+000
    outer loop
      vertex   2.617785e+001 -2.037441e+001 1.000000e+001
      vertex   1.981279e+001 -1.404056e+001 1.000000e+001
      vertex   1.981279e+001 -2.037441e+001 1.000000e+001
    endloop
  endfacet
  facet normal 0.000000e+000 0.000000e+000 1.000000e+000
    outer loop
      vertex   2.617785e+001 -3.441498e+001 1.000000e+001
      vertex   1.981279e+001 -2.037441e+001 1.000000e+001
      vertex   1.981279e+001 -3.441498e+001 1.000000e+001
    endloop
  endfacet
  facet normal 0.000000e+000 -0.000000e+000 1.000000e+000
    outer loop
      vertex   2.617785e+001 -3.441498e+001 1.000000e+001
      vertex   2.617785e+001 -2.037441e+001 1.000000e+001
      vertex   1.981279e+001 -2.037441e+001 1.000000e+001
    endloop
  endfacet
  facet normal 0.000000e+000 -0.000000e+000 -1.000000e+000
    outer loop
      vertex   1.981279e+001 9.559060e-007 0.000000e+000
      vertex   2.617785e+001 9.559060e-007 0.000000e+000
      vertex   1.981279e+001 -1.404056e+001 0.000000e+000
    endloop
  endfacet
  facet normal 0.000000e+000 0.000000e+000 -1.000000e+000
    outer loop
      vertex   1.981279e+001 -1.404056e+001 0.000000e+000
      vertex   2.617785e+001 9.559060e-007 0.000000e+000
      vertex   2.617785e+001 -1.404056e+001 0.000000e+000
    endloop
  endfacet
  facet normal 0.000000e+000 0.000000e+000 -1.000000e+000
    outer loop
      vertex   1.981279e+001 -2.037441e+001 0.000000e+000
      vertex   2.617785e+001 -1.404056e+001 0.000000e+000
      vertex   2.617785e+001 -2.037441e+001 0.000000e+000
    endloop
  endfacet
  facet normal 0.000000e+000 0.000000e+000 -1.000000e+000
    outer loop
      vertex   1.981279e+001 -3.441498e+001 0.000000e+000
      vertex   2.617785e+001 -2.037441e+001 0.000000e+000
      vertex   2.617785e+001 -3.441498e+001 0.000000e+000
    endloop
  endfacet
  facet normal 0.000000e+000 0.000000e+000 -1.000000e+000
    outer loop
      vertex   1.981279e+001 -3.441498e+001 0.000000e+000
      vertex   1.981279e+001 -2.037441e+001 0.000000e+000
      vertex   2.617785e+001 -2.037441e+001 0.000000e+000
    endloop
  endfacet
  facet normal 0.000000e+000 -0.000000e+000 -1.000000e+000
    outer loop
      vertex   2.617785e+001 -1.404056e+001 0.000000e+000
      vertex   4.018721e+001 -1.404056e+001 0.000000e+000
      vertex   2.617785e+001 -2.037441e+001 0.000000e+000
    endloop
  endfacet
  facet normal 0.000000e+000 0.000000e+000 -1.000000e+000
    outer loop
      vertex   2.617785e+001 -2.037441e+001 0.000000e+000
      vertex   4.018721e+001 -1.404056e+001 0.000000e+000
      vertex   4.018721e+001 -2.037441e+001 0.000000e+000
    endloop
  endfacet
  facet normal -0.000000e+000 0.000000e+000 -1.000000e+000
    outer loop
      vertex   2.617785e+001 -1.404056e+001 0.000000e+000
      vertex   1.981279e+001 -2.037441e+001 0.000000e+000
      vertex   1.981279e+001 -1.404056e+001 0.000000e+000
    endloop
  endfacet
  facet normal -0.000000e+000 -0.000000e+000 -1.000000e+000
    outer loop
      vertex   1.981279e+001 -1.404056e+001 0.000000e+000
      vertex   1.981279e+001 -2.037441e+001 0.000000e+000
      vertex   5.803432e+000 -2.037441e+001 0.000000e+000
    endloop
  endfacet
  facet normal 0.000000e+000 -0.000000e+000 -1.000000e+000
    outer loop
      vertex   5.803432e+000 -1.404056e+001 0.000000e+000
      vertex   1.981279e+001 -1.404056e+001 0.000000e+000
      vertex   5.803432e+000 -2.037441e+001 0.000000e+000
    endloop
  endfacet
endsolid