solid ascii
  facet normal -1.000000e+000 -1.839157e-016 -0.000000e+000
    outer loop
      vertex   1.402439e+000 -2.652439e+001 1.000000e+001
      vertex   1.402439e+000 -2.652439e+001 0.000000e+000
      vertex   1.402439e+000 -3.256097e+001 1.000000e+001
    endloop
  endfacet
  facet normal -1.000000e+000 -1.839157e-016 0.000000e+000
    outer loop
      vertex   1.402439e+000 -3.256097e+001 1.000000e+001
      vertex   1.402439e+000 -2.652439e+001 0.000000e+000
      vertex   1.402439e+000 -3.256097e+001 0.000000e+000
    endloop
  endfacet
  facet normal 0.000000e+000 1.000000e+000 0.000000e+000
    outer loop
      vertex   1.152439e+001 -2.652439e+001 1.000000e+001
      vertex   1.152439e+001 -2.652439e+001 0.000000e+000
      vertex   1.402439e+000 -2.652439e+001 1.000000e+001
    endloop
  endfacet
  facet normal 0.000000e+000 1.000000e+000 0.000000e+000
    outer loop
      vertex   1.402439e+000 -2.652439e+001 1.000000e+001
      vertex   1.152439e+001 -2.652439e+001 0.000000e+000
      vertex   1.402439e+000 -2.652439e+001 0.000000e+000
    endloop
  endfacet
  facet normal -1.000000e+000 5.445281e-016 0.000000e+000
    outer loop
      vertex   1.152439e+001 -2.326219e+001 1.000000e+001
      vertex   1.152439e+001 -2.326219e+001 0.000000e+000
      vertex   1.152439e+001 -2.652439e+001 1.000000e+001
    endloop
  endfacet
  facet normal -1.000000e+000 5.445281e-016 0.000000e+000
    outer loop
      vertex   1.152439e+001 -2.652439e+001 1.000000e+001
      vertex   1.152439e+001 -2.326219e+001 0.000000e+000
      vertex   1.152439e+001 -2.652439e+001 0.000000e+000
    endloop
  endfacet
  facet normal 0.000000e+000 -1.000000e+000 0.000000e+000
    outer loop
      vertex   1.402439e+000 -2.326219e+001 1.000000e+001
      vertex   1.402439e+000 -2.326219e+001 0.000000e+000
      vertex   1.152439e+001 -2.326219e+001 1.000000e+001
    endloop
  endfacet
  facet normal 0.000000e+000 -1.000000e+000 -0.000000e+000
    outer loop
      vertex   1.152439e+001 -2.326219e+001 1.000000e+001
      vertex   1.402439e+000 -2.326219e+001 0.000000e+000
      vertex   1.152439e+001 -2.326219e+001 0.000000e+000
    endloop
  endfacet
  facet normal -1.000000e+000 -1.839157e-016 -0.000000e+000
    outer loop
      vertex   1.402439e+000 -1.722561e+001 1.000000e+001
      vertex   1.402439e+000 -1.722561e+001 0.000000e+000
      vertex   1.402439e+000 -2.326219e+001 1.000000e+001
    endloop
  endfacet
  facet normal -1.000000e+000 -1.839157e-016 0.000000e+000
    outer loop
      vertex   1.402439e+000 -2.326219e+001 1.000000e+001
      vertex   1.402439e+000 -1.722561e+001 0.000000e+000
      vertex   1.402439e+000 -2.326219e+001 0.000000e+000
    endloop
  endfacet
  facet normal 0.000000e+000 1.000000e+000 0.000000e+000
    outer loop
      vertex   8.536585e+000 -1.722561e+001 1.000000e+001
      vertex   8.536585e+000 -1.722561e+001 0.000000e+000
      vertex   1.402439e+000 -1.722561e+001 1.000000e+001
    endloop
  endfacet
  facet normal 0.000000e+000 1.000000e+000 0.000000e+000
    outer loop
      vertex   1.402439e+000 -1.722561e+001 1.000000e+001
      vertex   8.536585e+000 -1.722561e+001 0.000000e+000
      vertex   1.402439e+000 -1.722561e+001 0.000000e+000
    endloop
  endfacet
  facet normal -8.966379e-001 -4.427646e-001 -0.000000e+000
    outer loop
      vertex   3.048780e-002 2.384186e-006 1.000000e+001
      vertex   3.048780e-002 2.384186e-006 0.000000e+000
      vertex   8.536585e+000 -1.722561e+001 1.000000e+001
    endloop
  endfacet
  facet normal -8.966379e-001 -4.427646e-001 0.000000e+000
    outer loop
      vertex   8.536585e+000 -1.722561e+001 1.000000e+001
      vertex   3.048780e-002 2.384186e-006 0.000000e+000
      vertex   8.536585e+000 -1.722561e+001 0.000000e+000
    endloop
  endfacet
  facet normal 0.000000e+000 1.000000e+000 0.000000e+000
    outer loop
      vertex   8.445122e+000 2.384186e-006 1.000000e+001
      vertex   8.445122e+000 2.384186e-006 0.000000e+000
      vertex   3.048780e-002 2.384186e-006 1.000000e+001
    endloop
  endfacet
  facet normal 0.000000e+000 1.000000e+000 0.000000e+000
    outer loop
      vertex   3.048780e-002 2.384186e-006 1.000000e+001
      vertex   8.445122e+000 2.384186e-006 0.000000e+000
      vertex   3.048780e-002 2.384186e-006 0.000000e+000
    endloop
  endfacet
  facet normal 9.126316e-001 4.087829e-001 0.000000e+000
    outer loop
      vertex   1.368902e+001 -1.170731e+001 1.000000e+001
      vertex   1.368902e+001 -1.170731e+001 0.000000e+000
      vertex   8.445122e+000 2.384186e-006 1.000000e+001
    endloop
  endfacet
  facet normal 9.126316e-001 4.087829e-001 0.000000e+000
    outer loop
      vertex   8.445122e+000 2.384186e-006 1.000000e+001
      vertex   1.368902e+001 -1.170731e+001 0.000000e+000
      vertex   8.445122e+000 2.384186e-006 0.000000e+000
    endloop
  endfacet
  facet normal 9.094832e-001 4.157408e-001 -0.000000e+000
    outer loop
      vertex   1.368902e+001 -1.170731e+001 0.000000e+000
      vertex   1.368902e+001 -1.170731e+001 1.000000e+001
      vertex   1.393531e+001 -1.224609e+001 5.000000e+000
    endloop
  endfacet
  facet normal 9.103665e-001 4.138029e-001 3.234271e-016
    outer loop
      vertex   1.393531e+001 -1.224609e+001 0.000000e+000
      vertex   1.393531e+001 -1.224609e+001 5.000000e+000
      vertex   1.417111e+001 -1.276486e+001 5.000000e+000
    endloop
  endfacet
  facet normal 9.113179e-001 4.117033e-001 -1.462664e-016
    outer loop
      vertex   1.417111e+001 -1.276486e+001 0.000000e+000
      vertex   1.417111e+001 -1.276486e+001 5.000000e+000
      vertex   1.439644e+001 -1.326362e+001 5.000000e+000
    endloop
  endfacet
  facet normal 9.123457e-001 4.094208e-001 -3.241303e-016
    outer loop
      vertex   1.439644e+001 -1.326362e+001 0.000000e+000
      vertex   1.439644e+001 -1.326362e+001 5.000000e+000
      vertex   1.461128e+001 -1.374238e+001 5.000000e+000
    endloop
  endfacet
  facet normal 9.134592e-001 4.069304e-001 -0.000000e+000
    outer loop
      vertex   1.461128e+001 -1.374238e+001 0.000000e+000
      vertex   1.461128e+001 -1.374238e+001 5.000000e+000
      vertex   1.481564e+001 -1.420112e+001 5.000000e+000
    endloop
  endfacet
  facet normal 9.146695e-001 4.042025e-001 3.249559e-016
    outer loop
      vertex   1.481564e+001 -1.420112e+001 0.000000e+000
      vertex   1.481564e+001 -1.420112e+001 5.000000e+000
      vertex   1.500953e+001 -1.463986e+001 5.000000e+000
    endloop
  endfacet
  facet normal 9.159898e-001 4.012015e-001 -1.425354e-016
    outer loop
      vertex   1.500953e+001 -1.463986e+001 0.000000e+000
      vertex   1.500953e+001 -1.463986e+001 5.000000e+000
      vertex   1.519293e+001 -1.505859e+001 5.000000e+000
    endloop
  endfacet
  facet normal 9.174356e-001 3.978843e-001 -3.259386e-016
    outer loop
      vertex   1.519293e+001 -1.505859e+001 0.000000e+000
      vertex   1.519293e+001 -1.505859e+001 5.000000e+000
      vertex   1.536585e+001 -1.545731e+001 0.000000e+000
    endloop
  endfacet
  facet normal 9.159898e-001 4.012015e-001 -3.278684e-016
    outer loop
      vertex   1.519293e+001 -1.505859e+001 0.000000e+000
      vertex   1.500953e+001 -1.463986e+001 0.000000e+000
      vertex   1.519293e+001 -1.505859e+001 5.000000e+000
    endloop
  endfacet
  facet normal 9.094832e-001 4.157408e-001 -3.231133e-016
    outer loop
      vertex   1.368902e+001 -1.170731e+001 1.000000e+001
      vertex   1.393531e+001 -1.224609e+001 1.000000e+001
      vertex   1.393531e+001 -1.224609e+001 5.000000e+000
    endloop
  endfacet
  facet normal 9.103665e-001 4.138029e-001 -3.234271e-016
    outer loop
      vertex   1.393531e+001 -1.224609e+001 5.000000e+000
      vertex   1.393531e+001 -1.224609e+001 1.000000e+001
      vertex   1.417111e+001 -1.276486e+001 1.000000e+001
    endloop
  endfacet
  facet normal 9.113179e-001 4.117033e-001 1.462664e-016
    outer loop
      vertex   1.417111e+001 -1.276486e+001 5.000000e+000
      vertex   1.417111e+001 -1.276486e+001 1.000000e+001
      vertex   1.439644e+001 -1.326362e+001 1.000000e+001
    endloop
  endfacet
  facet normal 9.123457e-001 4.094208e-001 3.241303e-016
    outer loop
      vertex   1.439644e+001 -1.326362e+001 5.000000e+000
      vertex   1.439644e+001 -1.326362e+001 1.000000e+001
      vertex   1.461128e+001 -1.374238e+001 1.000000e+001
    endloop
  endfacet
  facet normal 9.134592e-001 4.069304e-001 -0.000000e+000
    outer loop
      vertex   1.461128e+001 -1.374238e+001 5.000000e+000
      vertex   1.461128e+001 -1.374238e+001 1.000000e+001
      vertex   1.481564e+001 -1.420112e+001 1.000000e+001
    endloop
  endfacet
  facet normal 9.146695e-001 4.042025e-001 -3.249559e-016
    outer loop
      vertex   1.481564e+001 -1.420112e+001 5.000000e+000
      vertex   1.481564e+001 -1.420112e+001 1.000000e+001
      vertex   1.500953e+001 -1.463986e+001 1.000000e+001
    endloop
  endfacet
  facet normal 9.159898e-001 4.012015e-001 1.425354e-016
    outer loop
      vertex   1.500953e+001 -1.463986e+001 5.000000e+000
      vertex   1.500953e+001 -1.463986e+001 1.000000e+001
      vertex   1.519293e+001 -1.505859e+001 1.000000e+001
    endloop
  endfacet
  facet normal 9.174356e-001 3.978843e-001 3.259386e-016
    outer loop
      vertex   1.519293e+001 -1.505859e+001 5.000000e+000
      vertex   1.519293e+001 -1.505859e+001 1.000000e+001
      vertex   1.536585e+001 -1.545731e+001 1.000000e+001
    endloop
  endfacet
  facet normal 9.174356e-001 3.978843e-001 0.000000e+000
    outer loop
      vertex   1.536585e+001 -1.545731e+001 0.000000e+000
      vertex   1.519293e+001 -1.505859e+001 5.000000e+000
      vertex   1.536585e+001 -1.545731e+001 1.000000e+001
    endloop
  endfacet
  facet normal 9.103665e-001 4.138029e-001 1.470123e-016
    outer loop
      vertex   1.393531e+001 -1.224609e+001 5.000000e+000
      vertex   1.417111e+001 -1.276486e+001 1.000000e+001
      vertex   1.417111e+001 -1.276486e+001 5.000000e+000
    endloop
  endfacet
  facet normal 9.113179e-001 4.117033e-001 3.237652e-016
    outer loop
      vertex   1.417111e+001 -1.276486e+001 5.000000e+000
      vertex   1.439644e+001 -1.326362e+001 1.000000e+001
      vertex   1.439644e+001 -1.326362e+001 5.000000e+000
    endloop
  endfacet
  facet normal 9.123457e-001 4.094208e-001 0.000000e+000
    outer loop
      vertex   1.439644e+001 -1.326362e+001 5.000000e+000
      vertex   1.461128e+001 -1.374238e+001 1.000000e+001
      vertex   1.461128e+001 -1.374238e+001 5.000000e+000
    endloop
  endfacet
  facet normal 9.134592e-001 4.069304e-001 -3.245259e-016
    outer loop
      vertex   1.461128e+001 -1.374238e+001 5.000000e+000
      vertex   1.481564e+001 -1.420112e+001 1.000000e+001
      vertex   1.481564e+001 -1.420112e+001 5.000000e+000
    endloop
  endfacet
  facet normal 9.146695e-001 4.042025e-001 1.436016e-016
    outer loop
      vertex   1.481564e+001 -1.420112e+001 5.000000e+000
      vertex   1.500953e+001 -1.463986e+001 1.000000e+001
      vertex   1.500953e+001 -1.463986e+001 5.000000e+000
    endloop
  endfacet
  facet normal 9.159898e-001 4.012015e-001 3.254250e-016
    outer loop
      vertex   1.500953e+001 -1.463986e+001 5.000000e+000
      vertex   1.519293e+001 -1.505859e+001 1.000000e+001
      vertex   1.519293e+001 -1.505859e+001 5.000000e+000
    endloop
  endfacet
  facet normal 9.146695e-001 4.042025e-001 -1.446601e-016
    outer loop
      vertex   1.500953e+001 -1.463986e+001 0.000000e+000
      vertex   1.481564e+001 -1.420112e+001 0.000000e+000
      vertex   1.500953e+001 -1.463986e+001 5.000000e+000
    endloop
  endfacet
  facet normal 9.134592e-001 4.069304e-001 3.260761e-016
    outer loop
      vertex   1.481564e+001 -1.420112e+001 0.000000e+000
      vertex   1.461128e+001 -1.374238e+001 0.000000e+000
      vertex   1.481564e+001 -1.420112e+001 5.000000e+000
    endloop
  endfacet
  facet normal 9.123457e-001 4.094208e-001 0.000000e+000
    outer loop
      vertex   1.461128e+001 -1.374238e+001 0.000000e+000
      vertex   1.439644e+001 -1.326362e+001 0.000000e+000
      vertex   1.461128e+001 -1.374238e+001 5.000000e+000
    endloop
  endfacet
  facet normal 9.113179e-001 4.117033e-001 -3.245692e-016
    outer loop
      vertex   1.439644e+001 -1.326362e+001 0.000000e+000
      vertex   1.417111e+001 -1.276486e+001 0.000000e+000
      vertex   1.439644e+001 -1.326362e+001 5.000000e+000
    endloop
  endfacet
  facet normal 9.103665e-001 4.138029e-001 -1.461214e-016
    outer loop
      vertex   1.417111e+001 -1.276486e+001 0.000000e+000
      vertex   1.393531e+001 -1.224609e+001 0.000000e+000
      vertex   1.417111e+001 -1.276486e+001 5.000000e+000
    endloop
  endfacet
  facet normal 9.094832e-001 4.157408e-001 3.185995e-016
    outer loop
      vertex   1.393531e+001 -1.224609e+001 0.000000e+000
      vertex   1.368902e+001 -1.170731e+001 0.000000e+000
      vertex   1.393531e+001 -1.224609e+001 5.000000e+000
    endloop
  endfacet
  facet normal -9.053627e-001 4.246391e-001 0.000000e+000
    outer loop
      vertex   1.536585e+001 -1.545731e+001 0.000000e+000
      vertex   1.536585e+001 -1.545731e+001 1.000000e+001
      vertex   1.576982e+001 -1.459603e+001 5.000000e+000
    endloop
  endfacet
  facet normal -9.077360e-001 4.195418e-001 -3.224926e-016
    outer loop
      vertex   1.576982e+001 -1.459603e+001 0.000000e+000
      vertex   1.576982e+001 -1.459603e+001 5.000000e+000
      vertex   1.618902e+001 -1.368902e+001 5.000000e+000
    endloop
  endfacet
  facet normal -9.098673e-001 4.148995e-001 0.000000e+000
    outer loop
      vertex   1.618902e+001 -1.368902e+001 0.000000e+000
      vertex   1.618902e+001 -1.368902e+001 5.000000e+000
      vertex   1.662348e+001 -1.273628e+001 5.000000e+000
    endloop
  endfacet
  facet normal -9.117912e-001 4.106541e-001 0.000000e+000
    outer loop
      vertex   1.662348e+001 -1.273628e+001 0.000000e+000
      vertex   1.662348e+001 -1.273628e+001 5.000000e+000
      vertex   1.707317e+001 -1.173780e+001 0.000000e+000
    endloop
  endfacet
  facet normal -9.098673e-001 4.148995e-001 0.000000e+000
    outer loop
      vertex   1.662348e+001 -1.273628e+001 0.000000e+000
      vertex   1.618902e+001 -1.368902e+001 0.000000e+000
      vertex   1.662348e+001 -1.273628e+001 5.000000e+000
    endloop
  endfacet
  facet normal -9.053627e-001 4.246391e-001 3.216494e-016
    outer loop
      vertex   1.536585e+001 -1.545731e+001 1.000000e+001
      vertex   1.576982e+001 -1.459603e+001 1.000000e+001
      vertex   1.576982e+001 -1.459603e+001 5.000000e+000
    endloop
  endfacet
  facet normal -9.077360e-001 4.195418e-001 3.224926e-016
    outer loop
      vertex   1.576982e+001 -1.459603e+001 5.000000e+000
      vertex   1.576982e+001 -1.459603e+001 1.000000e+001
      vertex   1.618902e+001 -1.368902e+001 1.000000e+001
    endloop
  endfacet
  facet normal -9.098673e-001 4.148995e-001 0.000000e+000
    outer loop
      vertex   1.618902e+001 -1.368902e+001 5.000000e+000
      vertex   1.618902e+001 -1.368902e+001 1.000000e+001
      vertex   1.662348e+001 -1.273628e+001 1.000000e+001
    endloop
  endfacet
  facet normal -9.117912e-001 4.106541e-001 0.000000e+000
    outer loop
      vertex   1.662348e+001 -1.273628e+001 5.000000e+000
      vertex   1.662348e+001 -1.273628e+001 1.000000e+001
      vertex   1.707317e+001 -1.173780e+001 1.000000e+001
    endloop
  endfacet
  facet normal -9.117912e-001 4.106541e-001 0.000000e+000
    outer loop
      vertex   1.707317e+001 -1.173780e+001 0.000000e+000
      vertex   1.662348e+001 -1.273628e+001 5.000000e+000
      vertex   1.707317e+001 -1.173780e+001 1.000000e+001
    endloop
  endfacet
  facet normal -9.077360e-001 4.195418e-001 0.000000e+000
    outer loop
      vertex   1.576982e+001 -1.459603e+001 5.000000e+000
      vertex   1.618902e+001 -1.368902e+001 1.000000e+001
      vertex   1.618902e+001 -1.368902e+001 5.000000e+000
    endloop
  endfacet
  facet normal -9.098673e-001 4.148995e-001 0.000000e+000
    outer loop
      vertex   1.618902e+001 -1.368902e+001 5.000000e+000
      vertex   1.662348e+001 -1.273628e+001 1.000000e+001
      vertex   1.662348e+001 -1.273628e+001 5.000000e+000
    endloop
  endfacet
  facet normal -9.077360e-001 4.195418e-001 0.000000e+000
    outer loop
      vertex   1.618902e+001 -1.368902e+001 0.000000e+000
      vertex   1.576982e+001 -1.459603e+001 0.000000e+000
      vertex   1.618902e+001 -1.368902e+001 5.000000e+000
    endloop
  endfacet
  facet normal -9.053627e-001 4.246391e-001 -3.267731e-016
    outer loop
      vertex   1.576982e+001 -1.459603e+001 0.000000e+000
      vertex   1.536585e+001 -1.545731e+001 0.000000e+000
      vertex   1.576982e+001 -1.459603e+001 5.000000e+000
    endloop
  endfacet
  facet normal -9.103665e-001 4.138029e-001 0.000000e+000
    outer loop
      vertex   2.240854e+001 2.384186e-006 1.000000e+001
      vertex   2.240854e+001 2.384186e-006 0.000000e+000
      vertex   1.707317e+001 -1.173780e+001 1.000000e+001
    endloop
  endfacet
  facet normal -9.103665e-001 4.138029e-001 0.000000e+000
    outer loop
      vertex   1.707317e+001 -1.173780e+001 1.000000e+001
      vertex   2.240854e+001 2.384186e-006 0.000000e+000
      vertex   1.707317e+001 -1.173780e+001 0.000000e+000
    endloop
  endfacet
  facet normal 0.000000e+000 1.000000e+000 0.000000e+000
    outer loop
      vertex   3.082317e+001 2.384186e-006 1.000000e+001
      vertex   3.082317e+001 2.384186e-006 0.000000e+000
      vertex   2.240854e+001 2.384186e-006 1.000000e+001
    endloop
  endfacet
  facet normal 0.000000e+000 1.000000e+000 0.000000e+000
    outer loop
      vertex   2.240854e+001 2.384186e-006 1.000000e+001
      vertex   3.082317e+001 2.384186e-006 0.000000e+000
      vertex   2.240854e+001 2.384186e-006 0.000000e+000
    endloop
  endfacet
  facet normal 8.947437e-001 -4.465800e-001 0.000000e+000
    outer loop
      vertex   2.222561e+001 -1.722561e+001 1.000000e+001
      vertex   2.222561e+001 -1.722561e+001 0.000000e+000
      vertex   3.082317e+001 2.384186e-006 1.000000e+001
    endloop
  endfacet
  facet normal 8.947437e-001 -4.465800e-001 0.000000e+000
    outer loop
      vertex   3.082317e+001 2.384186e-006 1.000000e+001
      vertex   2.222561e+001 -1.722561e+001 0.000000e+000
      vertex   3.082317e+001 2.384186e-006 0.000000e+000
    endloop
  endfacet
  facet normal 0.000000e+000 1.000000e+000 0.000000e+000
    outer loop
      vertex   2.945122e+001 -1.722561e+001 1.000000e+001
      vertex   2.945122e+001 -1.722561e+001 0.000000e+000
      vertex   2.222561e+001 -1.722561e+001 1.000000e+001
    endloop
  endfacet
  facet normal 0.000000e+000 1.000000e+000 0.000000e+000
    outer loop
      vertex   2.222561e+001 -1.722561e+001 1.000000e+001
      vertex   2.945122e+001 -1.722561e+001 0.000000e+000
      vertex   2.222561e+001 -1.722561e+001 0.000000e+000
    endloop
  endfacet
  facet normal 1.000000e+000 -0.000000e+000 0.000000e+000
    outer loop
      vertex   2.945122e+001 -2.326219e+001 1.000000e+001
      vertex   2.945122e+001 -2.326219e+001 0.000000e+000
      vertex   2.945122e+001 -1.722561e+001 1.000000e+001
    endloop
  endfacet
  facet normal 1.000000e+000 -0.000000e+000 0.000000e+000
    outer loop
      vertex   2.945122e+001 -1.722561e+001 1.000000e+001
      vertex   2.945122e+001 -2.326219e+001 0.000000e+000
      vertex   2.945122e+001 -1.722561e+001 0.000000e+000
    endloop
  endfacet
  facet normal 0.000000e+000 -1.000000e+000 0.000000e+000
    outer loop
      vertex   1.920732e+001 -2.326219e+001 1.000000e+001
      vertex   1.920732e+001 -2.326219e+001 0.000000e+000
      vertex   2.945122e+001 -2.326219e+001 1.000000e+001
    endloop
  endfacet
  facet normal 0.000000e+000 -1.000000e+000 -0.000000e+000
    outer loop
      vertex   2.945122e+001 -2.326219e+001 1.000000e+001
      vertex   1.920732e+001 -2.326219e+001 0.000000e+000
      vertex   2.945122e+001 -2.326219e+001 0.000000e+000
    endloop
  endfacet
  facet normal 1.000000e+000 -0.000000e+000 0.000000e+000
    outer loop
      vertex   1.920732e+001 -2.652439e+001 1.000000e+001
      vertex   1.920732e+001 -2.652439e+001 0.000000e+000
      vertex   1.920732e+001 -2.326219e+001 1.000000e+001
    endloop
  endfacet
  facet normal 1.000000e+000 -0.000000e+000 0.000000e+000
    outer loop
      vertex   1.920732e+001 -2.326219e+001 1.000000e+001
      vertex   1.920732e+001 -2.652439e+001 0.000000e+000
      vertex   1.920732e+001 -2.326219e+001 0.000000e+000
    endloop
  endfacet
  facet normal 0.000000e+000 1.000000e+000 0.000000e+000
    outer loop
      vertex   2.945122e+001 -2.652439e+001 1.000000e+001
      vertex   2.945122e+001 -2.652439e+001 0.000000e+000
      vertex   1.920732e+001 -2.652439e+001 1.000000e+001
    endloop
  endfacet
  facet normal 0.000000e+000 1.000000e+000 0.000000e+000
    outer loop
      vertex   1.920732e+001 -2.652439e+001 1.000000e+001
      vertex   2.945122e+001 -2.652439e+001 0.000000e+000
      vertex   1.920732e+001 -2.652439e+001 0.000000e+000
    endloop
  endfacet
  facet normal 1.000000e+000 -0.000000e+000 0.000000e+000
    outer loop
      vertex   2.945122e+001 -3.256097e+001 1.000000e+001
      vertex   2.945122e+001 -3.256097e+001 0.000000e+000
      vertex   2.945122e+001 -2.652439e+001 1.000000e+001
    endloop
  endfacet
  facet normal 1.000000e+000 -0.000000e+000 0.000000e+000
    outer loop
      vertex   2.945122e+001 -2.652439e+001 1.000000e+001
      vertex   2.945122e+001 -3.256097e+001 0.000000e+000
      vertex   2.945122e+001 -2.652439e+001 0.000000e+000
    endloop
  endfacet
  facet normal 0.000000e+000 -1.000000e+000 0.000000e+000
    outer loop
      vertex   1.920732e+001 -3.256097e+001 1.000000e+001
      vertex   1.920732e+001 -3.256097e+001 0.000000e+000
      vertex   2.945122e+001 -3.256097e+001 1.000000e+001
    endloop
  endfacet
  facet normal 0.000000e+000 -1.000000e+000 -0.000000e+000
    outer loop
      vertex   2.945122e+001 -3.256097e+001 1.000000e+001
      vertex   1.920732e+001 -3.256097e+001 0.000000e+000
      vertex   2.945122e+001 -3.256097e+001 0.000000e+000
    endloop
  endfacet
  facet normal 1.000000e+000 -0.000000e+000 0.000000e+000
    outer loop
      vertex   1.920732e+001 -4.000000e+001 1.000000e+001
      vertex   1.920732e+001 -4.000000e+001 0.000000e+000
      vertex   1.920732e+001 -3.256097e+001 1.000000e+001
    endloop
  endfacet
  facet normal 1.000000e+000 -0.000000e+000 0.000000e+000
    outer loop
      vertex   1.920732e+001 -3.256097e+001 1.000000e+001
      vertex   1.920732e+001 -4.000000e+001 0.000000e+000
      vertex   1.920732e+001 -3.256097e+001 0.000000e+000
    endloop
  endfacet
  facet normal 0.000000e+000 -1.000000e+000 0.000000e+000
    outer loop
      vertex   1.152439e+001 -4.000000e+001 1.000000e+001
      vertex   1.152439e+001 -4.000000e+001 0.000000e+000
      vertex   1.920732e+001 -4.000000e+001 1.000000e+001
    endloop
  endfacet
  facet normal 0.000000e+000 -1.000000e+000 -0.000000e+000
    outer loop
      vertex   1.920732e+001 -4.000000e+001 1.000000e+001
      vertex   1.152439e+001 -4.000000e+001 0.000000e+000
      vertex   1.920732e+001 -4.000000e+001 0.000000e+000
    endloop
  endfacet
  facet normal -1.000000e+000 -0.000000e+000 -0.000000e+000
    outer loop
      vertex   1.152439e+001 -3.256097e+001 1.000000e+001
      vertex   1.152439e+001 -3.256097e+001 0.000000e+000
      vertex   1.152439e+001 -4.000000e+001 1.000000e+001
    endloop
  endfacet
  facet normal -1.000000e+000 -0.000000e+000 -0.000000e+000
    outer loop
      vertex   1.152439e+001 -4.000000e+001 1.000000e+001
      vertex   1.152439e+001 -3.256097e+001 0.000000e+000
      vertex   1.152439e+001 -4.000000e+001 0.000000e+000
    endloop
  endfacet
  facet normal 0.000000e+000 -1.000000e+000 0.000000e+000
    outer loop
      vertex   1.402439e+000 -3.256097e+001 1.000000e+001
      vertex   1.402439e+000 -3.256097e+001 0.000000e+000
      vertex   1.152439e+001 -3.256097e+001 1.000000e+001
    endloop
  endfacet
  facet normal 0.000000e+000 -1.000000e+000 -0.000000e+000
    outer loop
      vertex   1.152439e+001 -3.256097e+001 1.000000e+001
      vertex   1.402439e+000 -3.256097e+001 0.000000e+000
      vertex   1.152439e+001 -3.256097e+001 0.000000e+000
    endloop
  endfacet
  facet normal 0.000000e+000 -0.000000e+000 1.000000e+000
    outer loop
      vertex   1.402439e+000 -3.256097e+001 1.000000e+001
      vertex   1.152439e+001 -3.256097e+001 1.000000e+001
      vertex   1.402439e+000 -2.652439e+001 1.000000e+001
    endloop
  endfacet
  facet normal -0.000000e+000 -0.000000e+000 1.000000e+000
    outer loop
      vertex   1.402439e+000 -2.652439e+001 1.000000e+001
      vertex   1.152439e+001 -3.256097e+001 1.000000e+001
      vertex   1.152439e+001 -2.652439e+001 1.000000e+001
    endloop
  endfacet
  facet normal -0.000000e+000 0.000000e+000 1.000000e+000
    outer loop
      vertex   1.152439e+001 -2.652439e+001 1.000000e+001
      vertex   1.152439e+001 -3.256097e+001 1.000000e+001
      vertex   1.920732e+001 -3.256097e+001 1.000000e+001
    endloop
  endfacet
  facet normal -0.000000e+000 0.000000e+000 1.000000e+000
    outer loop
      vertex   1.920732e+001 -2.652439e+001 1.000000e+001
      vertex   1.920732e+001 -3.256097e+001 1.000000e+001
      vertex   2.945122e+001 -3.256097e+001 1.000000e+001
    endloop
  endfacet
  facet normal 0.000000e+000 0.000000e+000 1.000000e+000
    outer loop
      vertex   2.945122e+001 -2.652439e+001 1.000000e+001
      vertex   1.920732e+001 -2.652439e+001 1.000000e+001
      vertex   2.945122e+001 -3.256097e+001 1.000000e+001
    endloop
  endfacet
  facet normal 0.000000e+000 -0.000000e+000 1.000000e+000
    outer loop
      vertex   1.152439e+001 -4.000000e+001 1.000000e+001
      vertex   1.920732e+001 -4.000000e+001 1.000000e+001
      vertex   1.152439e+001 -3.256097e+001 1.000000e+001
    endloop
  endfacet
  facet normal -0.000000e+000 0.000000e+000 1.000000e+000
    outer loop
      vertex   1.152439e+001 -3.256097e+001 1.000000e+001
      vertex   1.920732e+001 -4.000000e+001 1.000000e+001
      vertex   1.920732e+001 -3.256097e+001 1.000000e+001
    endloop
  endfacet
  facet normal -0.000000e+000 0.000000e+000 1.000000e+000
    outer loop
      vertex   1.152439e+001 -2.652439e+001 1.000000e+001
      vertex   1.920732e+001 -3.256097e+001 1.000000e+001
      vertex   1.920732e+001 -2.652439e+001 1.000000e+001
    endloop
  endfacet
  facet normal -0.000000e+000 0.000000e+000 1.000000e+000
    outer loop
      vertex   1.152439e+001 -2.326219e+001 1.000000e+001
      vertex   1.920732e+001 -2.652439e+001 1.000000e+001
      vertex   1.920732e+001 -2.326219e+001 1.000000e+001
    endloop
  endfacet
  facet normal -0.000000e+000 0.000000e+000 1.000000e+000
    outer loop
      vertex   1.536585e+001 -1.545731e+001 1.000000e+001
      vertex   1.920732e+001 -2.326219e+001 1.000000e+001
      vertex   2.222561e+001 -1.722561e+001 1.000000e+001
    endloop
  endfacet
  facet normal -0.000000e+000 -0.000000e+000 1.000000e+000
    outer loop
      vertex   1.576982e+001 -1.459603e+001 1.000000e+001
      vertex   2.222561e+001 -1.722561e+001 1.000000e+001
      vertex   1.618902e+001 -1.368902e+001 1.000000e+001
    endloop
  endfacet
  facet normal 0.000000e+000 0.000000e+000 1.000000e+000
    outer loop
      vertex   1.576982e+001 -1.459603e+001 1.000000e+001
      vertex   1.536585e+001 -1.545731e+001 1.000000e+001
      vertex   2.222561e+001 -1.722561e+001 1.000000e+001
    endloop
  endfacet
  facet normal 0.000000e+000 -0.000000e+000 1.000000e+000
    outer loop
      vertex   1.152439e+001 -2.652439e+001 1.000000e+001
      vertex   1.920732e+001 -2.652439e+001 1.000000e+001
      vertex   1.152439e+001 -2.326219e+001 1.000000e+001
    endloop
  endfacet
  facet normal 0.000000e+000 -0.000000e+000 1.000000e+000
    outer loop
      vertex   1.920732e+001 -2.326219e+001 1.000000e+001
      vertex   2.945122e+001 -2.326219e+001 1.000000e+001
      vertex   2.222561e+001 -1.722561e+001 1.000000e+001
    endloop
  endfacet
  facet normal -0.000000e+000 0.000000e+000 1.000000e+000
    outer loop
      vertex   2.222561e+001 -1.722561e+001 1.000000e+001
      vertex   2.945122e+001 -2.326219e+001 1.000000e+001
      vertex   2.945122e+001 -1.722561e+001 1.000000e+001
    endloop
  endfacet
  facet normal 0.000000e+000 0.000000e+000 1.000000e+000
    outer loop
      vertex   3.082317e+001 2.384186e-006 1.000000e+001
      vertex   2.240854e+001 2.384186e-006 1.000000e+001
      vertex   2.222561e+001 -1.722561e+001 1.000000e+001
    endloop
  endfacet
  facet normal 0.000000e+000 -0.000000e+000 1.000000e+000
    outer loop
      vertex   2.222561e+001 -1.722561e+001 1.000000e+001
      vertex   2.240854e+001 2.384186e-006 1.000000e+001
      vertex   1.707317e+001 -1.173780e+001 1.000000e+001
    endloop
  endfacet
  facet normal -0.000000e+000 -0.000000e+000 1.000000e+000
    outer loop
      vertex   1.662348e+001 -1.273628e+001 1.000000e+001
      vertex   2.222561e+001 -1.722561e+001 1.000000e+001
      vertex   1.707317e+001 -1.173780e+001 1.000000e+001
    endloop
  endfacet
  facet normal 0.000000e+000 0.000000e+000 1.000000e+000
    outer loop
      vertex   1.662348e+001 -1.273628e+001 1.000000e+001
      vertex   1.618902e+001 -1.368902e+001 1.000000e+001
      vertex   2.222561e+001 -1.722561e+001 1.000000e+001
    endloop
  endfacet
  facet normal -0.000000e+000 0.000000e+000 1.000000e+000
    outer loop
      vertex   1.519293e+001 -1.505859e+001 1.000000e+001
      vertex   8.536585e+000 -1.722561e+001 1.000000e+001
      vertex   1.536585e+001 -1.545731e+001 1.000000e+001
    endloop
  endfacet
  facet normal 0.000000e+000 0.000000e+000 1.000000e+000
    outer loop
      vertex   1.519293e+001 -1.505859e+001 1.000000e+001
      vertex   1.500953e+001 -1.463986e+001 1.000000e+001
      vertex   8.536585e+000 -1.722561e+001 1.000000e+001
    endloop
  endfacet
  facet normal 0.000000e+000 -0.000000e+000 1.000000e+000
    outer loop
      vertex   8.536585e+000 -1.722561e+001 1.000000e+001
      vertex   1.500953e+001 -1.463986e+001 1.000000e+001
      vertex   1.481564e+001 -1.420112e+001 1.000000e+001
    endloop
  endfacet
  facet normal -0.000000e+000 0.000000e+000 1.000000e+000
    outer loop
      vertex   1.461128e+001 -1.374238e+001 1.000000e+001
      vertex   8.536585e+000 -1.722561e+001 1.000000e+001
      vertex   1.481564e+001 -1.420112e+001 1.000000e+001
    endloop
  endfacet
  facet normal 0.000000e+000 0.000000e+000 1.000000e+000
    outer loop
      vertex   1.461128e+001 -1.374238e+001 1.000000e+001
      vertex   1.439644e+001 -1.326362e+001 1.000000e+001
      vertex   8.536585e+000 -1.722561e+001 1.000000e+001
    endloop
  endfacet
  facet normal 0.000000e+000 -0.000000e+000 1.000000e+000
    outer loop
      vertex   8.536585e+000 -1.722561e+001 1.000000e+001
      vertex   1.439644e+001 -1.326362e+001 1.000000e+001
      vertex   1.417111e+001 -1.276486e+001 1.000000e+001
    endloop
  endfacet
  facet normal -0.000000e+000 0.000000e+000 1.000000e+000
    outer loop
      vertex   1.393531e+001 -1.224609e+001 1.000000e+001
      vertex   8.536585e+000 -1.722561e+001 1.000000e+001
      vertex   1.417111e+001 -1.276486e+001 1.000000e+001
    endloop
  endfacet
  facet normal 0.000000e+000 0.000000e+000 1.000000e+000
    outer loop
      vertex   1.393531e+001 -1.224609e+001 1.000000e+001
      vertex   1.368902e+001 -1.170731e+001 1.000000e+001
      vertex   8.536585e+000 -1.722561e+001 1.000000e+001
    endloop
  endfacet
  facet normal 0.000000e+000 -0.000000e+000 1.000000e+000
    outer loop
      vertex   8.536585e+000 -1.722561e+001 1.000000e+001
      vertex   1.368902e+001 -1.170731e+001 1.000000e+001
      vertex   8.445122e+000 2.384186e-006 1.000000e+001
    endloop
  endfacet
  facet normal -0.000000e+000 -0.000000e+000 1.000000e+000
    outer loop
      vertex   3.048780e-002 2.384186e-006 1.000000e+001
      vertex   8.536585e+000 -1.722561e+001 1.000000e+001
      vertex   8.445122e+000 2.384186e-006 1.000000e+001
    endloop
  endfacet
  facet normal -0.000000e+000 0.000000e+000 1.000000e+000
    outer loop
      vertex   1.402439e+000 -1.722561e+001 1.000000e+001
      vertex   1.402439e+000 -2.326219e+001 1.000000e+001
      vertex   8.536585e+000 -1.722561e+001 1.000000e+001
    endloop
  endfacet
  facet normal -0.000000e+000 0.000000e+000 1.000000e+000
    outer loop
      vertex   8.536585e+000 -1.722561e+001 1.000000e+001
      vertex   1.402439e+000 -2.326219e+001 1.000000e+001
      vertex   1.152439e+001 -2.326219e+001 1.000000e+001
    endloop
  endfacet
  facet normal -0.000000e+000 0.000000e+000 1.000000e+000
    outer loop
      vertex   1.536585e+001 -1.545731e+001 1.000000e+001
      vertex   1.152439e+001 -2.326219e+001 1.000000e+001
      vertex   1.920732e+001 -2.326219e+001 1.000000e+001
    endloop
  endfacet
  facet normal 0.000000e+000 0.000000e+000 1.000000e+000
    outer loop
      vertex   1.536585e+001 -1.545731e+001 1.000000e+001
      vertex   8.536585e+000 -1.722561e+001 1.000000e+001
      vertex   1.152439e+001 -2.326219e+001 1.000000e+001
    endloop
  endfacet
  facet normal 0.000000e+000 0.000000e+000 -1.000000e+000
    outer loop
      vertex   1.402439e+000 -3.256097e+001 0.000000e+000
      vertex   1.152439e+001 -2.652439e+001 0.000000e+000
      vertex   1.152439e+001 -3.256097e+001 0.000000e+000
    endloop
  endfacet
  facet normal 0.000000e+000 0.000000e+000 -1.000000e+000
    outer loop
      vertex   1.402439e+000 -3.256097e+001 0.000000e+000
      vertex   1.402439e+000 -2.652439e+001 0.000000e+000
      vertex   1.152439e+001 -2.652439e+001 0.000000e+000
    endloop
  endfacet
  facet normal 0.000000e+000 -0.000000e+000 -1.000000e+000
    outer loop
      vertex   1.152439e+001 -2.326219e+001 0.000000e+000
      vertex   1.920732e+001 -2.326219e+001 0.000000e+000
      vertex   1.152439e+001 -2.652439e+001 0.000000e+000
    endloop
  endfacet
  facet normal 0.000000e+000 0.000000e+000 -1.000000e+000
    outer loop
      vertex   1.152439e+001 -2.326219e+001 0.000000e+000
      vertex   1.536585e+001 -1.545731e+001 0.000000e+000
      vertex   1.920732e+001 -2.326219e+001 0.000000e+000
    endloop
  endfacet
  facet normal 0.000000e+000 0.000000e+000 -1.000000e+000
    outer loop
      vertex   1.152439e+001 -2.326219e+001 0.000000e+000
      vertex   8.536585e+000 -1.722561e+001 0.000000e+000
      vertex   1.536585e+001 -1.545731e+001 0.000000e+000
    endloop
  endfacet
  facet normal 0.000000e+000 0.000000e+000 -1.000000e+000
    outer loop
      vertex   1.152439e+001 -2.326219e+001 0.000000e+000
      vertex   1.402439e+000 -2.326219e+001 0.000000e+000
      vertex   8.536585e+000 -1.722561e+001 0.000000e+000
    endloop
  endfacet
  facet normal -0.000000e+000 0.000000e+000 -1.000000e+000
    outer loop
      vertex   8.536585e+000 -1.722561e+001 0.000000e+000
      vertex   1.402439e+000 -2.326219e+001 0.000000e+000
      vertex   1.402439e+000 -1.722561e+001 0.000000e+000
    endloop
  endfacet
  facet normal 0.000000e+000 0.000000e+000 -1.000000e+000
    outer loop
      vertex   3.048780e-002 2.384186e-006 0.000000e+000
      vertex   8.445122e+000 2.384186e-006 0.000000e+000
      vertex   8.536585e+000 -1.722561e+001 0.000000e+000
    endloop
  endfacet
  facet normal 0.000000e+000 0.000000e+000 -1.000000e+000
    outer loop
      vertex   8.536585e+000 -1.722561e+001 0.000000e+000
      vertex   8.445122e+000 2.384186e-006 0.000000e+000
      vertex   1.368902e+001 -1.170731e+001 0.000000e+000
    endloop
  endfacet
  facet normal -0.000000e+000 0.000000e+000 -1.000000e+000
    outer loop
      vertex   1.393531e+001 -1.224609e+001 0.000000e+000
      vertex   8.536585e+000 -1.722561e+001 0.000000e+000
      vertex   1.368902e+001 -1.170731e+001 0.000000e+000
    endloop
  endfacet
  facet normal 0.000000e+000 -0.000000e+000 -1.000000e+000
    outer loop
      vertex   1.393531e+001 -1.224609e+001 0.000000e+000
      vertex   1.417111e+001 -1.276486e+001 0.000000e+000
      vertex   8.536585e+000 -1.722561e+001 0.000000e+000
    endloop
  endfacet
  facet normal 0.000000e+000 0.000000e+000 -1.000000e+000
    outer loop
      vertex   8.536585e+000 -1.722561e+001 0.000000e+000
      vertex   1.417111e+001 -1.276486e+001 0.000000e+000
      vertex   1.439644e+001 -1.326362e+001 0.000000e+000
    endloop
  endfacet
  facet normal -0.000000e+000 0.000000e+000 -1.000000e+000
    outer loop
      vertex   1.461128e+001 -1.374238e+001 0.000000e+000
      vertex   8.536585e+000 -1.722561e+001 0.000000e+000
      vertex   1.439644e+001 -1.326362e+001 0.000000e+000
    endloop
  endfacet
  facet normal 0.000000e+000 -0.000000e+000 -1.000000e+000
    outer loop
      vertex   1.461128e+001 -1.374238e+001 0.000000e+000
      vertex   1.481564e+001 -1.420112e+001 0.000000e+000
      vertex   8.536585e+000 -1.722561e+001 0.000000e+000
    endloop
  endfacet
  facet normal 0.000000e+000 0.000000e+000 -1.000000e+000
    outer loop
      vertex   8.536585e+000 -1.722561e+001 0.000000e+000
      vertex   1.481564e+001 -1.420112e+001 0.000000e+000
      vertex   1.500953e+001 -1.463986e+001 0.000000e+000
    endloop
  endfacet
  facet normal -0.000000e+000 0.000000e+000 -1.000000e+000
    outer loop
      vertex   1.519293e+001 -1.505859e+001 0.000000e+000
      vertex   8.536585e+000 -1.722561e+001 0.000000e+000
      vertex   1.500953e+001 -1.463986e+001 0.000000e+000
    endloop
  endfacet
  facet normal 0.000000e+000 -0.000000e+000 -1.000000e+000
    outer loop
      vertex   1.519293e+001 -1.505859e+001 0.000000e+000
      vertex   1.536585e+001 -1.545731e+001 0.000000e+000
      vertex   8.536585e+000 -1.722561e+001 0.000000e+000
    endloop
  endfacet
  facet normal 0.000000e+000 0.000000e+000 -1.000000e+000
    outer loop
      vertex   1.920732e+001 -2.326219e+001 0.000000e+000
      vertex   1.536585e+001 -1.545731e+001 0.000000e+000
      vertex   2.222561e+001 -1.722561e+001 0.000000e+000
    endloop
  endfacet
  facet normal 0.000000e+000 0.000000e+000 -1.000000e+000
    outer loop
      vertex   2.945122e+001 -2.326219e+001 0.000000e+000
      vertex   2.222561e+001 -1.722561e+001 0.000000e+000
      vertex   2.945122e+001 -1.722561e+001 0.000000e+000
    endloop
  endfacet
  facet normal 0.000000e+000 0.000000e+000 -1.000000e+000
    outer loop
      vertex   2.945122e+001 -2.326219e+001 0.000000e+000
      vertex   1.920732e+001 -2.326219e+001 0.000000e+000
      vertex   2.222561e+001 -1.722561e+001 0.000000e+000
    endloop
  endfacet
  facet normal 0.000000e+000 0.000000e+000 -1.000000e+000
    outer loop
      vertex   1.536585e+001 -1.545731e+001 0.000000e+000
      vertex   1.576982e+001 -1.459603e+001 0.000000e+000
      vertex   2.222561e+001 -1.722561e+001 0.000000e+000
    endloop
  endfacet
  facet normal 0.000000e+000 0.000000e+000 -1.000000e+000
    outer loop
      vertex   2.222561e+001 -1.722561e+001 0.000000e+000
      vertex   1.576982e+001 -1.459603e+001 0.000000e+000
      vertex   1.618902e+001 -1.368902e+001 0.000000e+000
    endloop
  endfacet
  facet normal -0.000000e+000 -0.000000e+000 -1.000000e+000
    outer loop
      vertex   1.662348e+001 -1.273628e+001 0.000000e+000
      vertex   2.222561e+001 -1.722561e+001 0.000000e+000
      vertex   1.618902e+001 -1.368902e+001 0.000000e+000
    endloop
  endfacet
  facet normal 0.000000e+000 0.000000e+000 -1.000000e+000
    outer loop
      vertex   1.662348e+001 -1.273628e+001 0.000000e+000
      vertex   1.707317e+001 -1.173780e+001 0.000000e+000
      vertex   2.222561e+001 -1.722561e+001 0.000000e+000
    endloop
  endfacet
  facet normal 0.000000e+000 0.000000e+000 -1.000000e+000
    outer loop
      vertex   2.222561e+001 -1.722561e+001 0.000000e+000
      vertex   1.707317e+001 -1.173780e+001 0.000000e+000
      vertex   2.240854e+001 2.384186e-006 0.000000e+000
    endloop
  endfacet
  facet normal -0.000000e+000 0.000000e+000 -1.000000e+000
    outer loop
      vertex   3.082317e+001 2.384186e-006 0.000000e+000
      vertex   2.222561e+001 -1.722561e+001 0.000000e+000
      vertex   2.240854e+001 2.384186e-006 0.000000e+000
    endloop
  endfacet
  facet normal -0.000000e+000 -0.000000e+000 -1.000000e+000
    outer loop
      vertex   1.920732e+001 -2.326219e+001 0.000000e+000
      vertex   1.920732e+001 -2.652439e+001 0.000000e+000
      vertex   1.152439e+001 -2.652439e+001 0.000000e+000
    endloop
  endfacet
  facet normal 0.000000e+000 -0.000000e+000 -1.000000e+000
    outer loop
      vertex   1.152439e+001 -2.652439e+001 0.000000e+000
      vertex   1.920732e+001 -2.652439e+001 0.000000e+000
      vertex   1.152439e+001 -3.256097e+001 0.000000e+000
    endloop
  endfacet
  facet normal 0.000000e+000 0.000000e+000 -1.000000e+000
    outer loop
      vertex   1.152439e+001 -3.256097e+001 0.000000e+000
      vertex   1.920732e+001 -2.652439e+001 0.000000e+000
      vertex   1.920732e+001 -3.256097e+001 0.000000e+000
    endloop
  endfacet
  facet normal 0.000000e+000 0.000000e+000 -1.000000e+000
    outer loop
      vertex   1.152439e+001 -4.000000e+001 0.000000e+000
      vertex   1.920732e+001 -3.256097e+001 0.000000e+000
      vertex   1.920732e+001 -4.000000e+001 0.000000e+000
    endloop
  endfacet
  facet normal 0.000000e+000 0.000000e+000 -1.000000e+000
    outer loop
      vertex   1.152439e+001 -4.000000e+001 0.000000e+000
      vertex   1.152439e+001 -3.256097e+001 0.000000e+000
      vertex   1.920732e+001 -3.256097e+001 0.000000e+000
    endloop
  endfacet
  facet normal 0.000000e+000 -0.000000e+000 -1.000000e+000
    outer loop
      vertex   1.920732e+001 -2.652439e+001 0.000000e+000
      vertex   2.945122e+001 -2.652439e+001 0.000000e+000
      vertex   1.920732e+001 -3.256097e+001 0.000000e+000
    endloop
  endfacet
  facet normal 0.000000e+000 0.000000e+000 -1.000000e+000
    outer loop
      vertex   1.920732e+001 -3.256097e+001 0.000000e+000
      vertex   2.945122e+001 -2.652439e+001 0.000000e+000
      vertex   2.945122e+001 -3.256097e+001 0.000000e+000
    endloop
  endfacet
endsolid